<?xml version="1.0" encoding="UTF-8" standalone="no"?>
<!-- Generated by IcoMoon.io -->

<svg
   xmlns:dc="http://purl.org/dc/elements/1.1/"
   xmlns:cc="http://creativecommons.org/ns#"
   xmlns:rdf="http://www.w3.org/1999/02/22-rdf-syntax-ns#"
   xmlns:svg="http://www.w3.org/2000/svg"
   xmlns="http://www.w3.org/2000/svg"
   xmlns:sodipodi="http://sodipodi.sourceforge.net/DTD/sodipodi-0.dtd"
   xmlns:inkscape="http://www.inkscape.org/namespaces/inkscape"
   version="1.1"
   width="112"
   height="112"
   viewBox="0 0 112 112"
   id="svg3370"
   inkscape:version="0.91 r13725"
   sodipodi:docname="cloud3.svg">
  <metadata
     id="metadata3378">
    <rdf:RDF>
      <cc:Work
         rdf:about="">
        <dc:format>image/svg+xml</dc:format>
        <dc:type
           rdf:resource="http://purl.org/dc/dcmitype/StillImage" />
        <dc:title></dc:title>
      </cc:Work>
    </rdf:RDF>
  </metadata>
  <defs
     id="defs3376" />
  <sodipodi:namedview
     pagecolor="#ffffff"
     bordercolor="#666666"
     borderopacity="1"
     objecttolerance="10"
     gridtolerance="10"
     guidetolerance="10"
     inkscape:pageopacity="0"
     inkscape:pageshadow="2"
     inkscape:window-width="892"
     inkscape:window-height="606"
     id="namedview3374"
     showgrid="false"
     inkscape:zoom="16.8125"
     inkscape:cx="16"
     inkscape:cy="37.412639"
     inkscape:window-x="0"
     inkscape:window-y="0"
     inkscape:window-maximized="0"
     inkscape:current-layer="svg3370" />
  <path
     d="m 111.99475,29.493578 c 0,-10.751664 -8.74973,-19.49439 -19.50489,-19.49439 -0.524984,0 -1.042968,0.0175 -1.564451,0.0595 C 85.868067,3.751883 78.241805,0 69.996063,0 61.75382,0 54.124059,3.751883 49.066717,10.058686 c -0.517984,-0.042 -1.042968,-0.0595 -1.571451,-0.0595 -10.744664,0 -19.494391,8.746226 -19.494391,19.49439 0,1.126965 0.150495,2.215431 0.32899,3.289898 -0.118997,0.153995 -0.258992,0.29749 -0.374489,0.454985 -1.144464,-0.164495 -2.292428,-0.244992 -3.454392,-0.244992 -13.506078,0 -24.499234,10.993156 -24.499234,24.499234 0,13.506078 10.993156,24.499235 24.499234,24.499235 2.995907,0 5.925315,-0.545983 8.686729,-1.60295 4.014374,3.49989 8.774226,5.893816 13.824568,7.265773 l -5.011843,3.345897 6.999781,6.999781 L 42.000438,112 62.999781,98.000437 56,91.000656 57.053467,88.904222 c 8.039249,-0.244993 15.69351,-3.2234 21.75882,-8.511734 2.761414,1.056967 5.690822,1.60295 8.686729,1.60295 13.506074,0 24.499234,-10.993157 24.499234,-24.499235 0,-5.613824 -1.97744,-10.737664 -5.17634,-14.874535 3.1884,-3.471891 5.17634,-8.053248 5.17634,-13.12459 z M 87.495516,74.992156 c -3.744883,0 -7.199275,-1.203962 -10.048186,-3.202399 -4.15787,5.008343 -10.006187,8.473235 -16.673479,9.652698 l -5.200838,0.507484 c -8.490734,-0.136496 -15.9805,-4.073873 -21.027342,-10.156682 -2.845412,2.001937 -6.303304,3.202399 -10.048186,3.202399 -9.666698,0 -17.4994536,-7.829255 -17.4994536,-17.499453 0,-9.659698 7.8327556,-17.499453 17.4994536,-17.499453 2.365926,0 4.605856,0.482985 6.656791,1.329959 0.122497,-0.237993 0.272992,-0.437487 0.395488,-0.66498 1.231962,-2.246929 2.747414,-4.301365 4.521859,-6.135308 5.050342,-5.225337 12.067623,-8.532733 19.924877,-8.532733 10.87416,0 20.197869,6.271804 24.835224,15.329521 1.235461,-0.510984 2.55142,-0.839974 3.909378,-1.056967 l 2.754414,-0.272992 c 2.698415,0 5.221837,0.664979 7.507265,1.749946 2.474423,1.186462 4.598857,2.925908 6.264809,5.074841 2.29592,2.957408 3.72738,6.635793 3.72738,10.674666 0,9.670198 -7.832756,17.499453 -17.499454,17.499453 z M 101.83807,37.725321 c -4.042376,-2.939908 -8.970222,-4.731852 -14.342554,-4.731852 -1.161964,0 -2.309928,0.0805 -3.454392,0.244992 C 77.506828,24.338239 67.19265,18.993906 55.9965,18.993906 c -7.465267,0 -14.507046,2.418425 -20.330864,6.639293 1.634448,-4.997844 6.285803,-8.63423 11.82613,-8.63423 1.693947,0 3.293397,0.342989 4.756351,0.94847 3.321397,-6.471298 9.981688,-10.947658 17.744446,-10.947658 7.762757,0 14.426549,4.47636 17.737445,10.947658 1.473454,-0.605481 3.079904,-0.94847 4.756352,-0.94847 6.908784,0 12.50511,5.596325 12.50511,12.494609 0,3.170901 -1.21796,6.030312 -3.1569,8.231743 z"
     id="path3372"
     inkscape:connector-curvature="0" />
</svg>
