<?xml version="1.0" encoding="UTF-8" standalone="no"?>
<!-- Generated by IcoMoon.io -->

<svg
   xmlns:dc="http://purl.org/dc/elements/1.1/"
   xmlns:cc="http://creativecommons.org/ns#"
   xmlns:rdf="http://www.w3.org/1999/02/22-rdf-syntax-ns#"
   xmlns:svg="http://www.w3.org/2000/svg"
   xmlns="http://www.w3.org/2000/svg"
   xmlns:sodipodi="http://sodipodi.sourceforge.net/DTD/sodipodi-0.dtd"
   xmlns:inkscape="http://www.inkscape.org/namespaces/inkscape"
   version="1.1"
   width="112"
   height="112"
   viewBox="0 0 112 112"
   id="svg2"
   inkscape:version="0.91 r13725"
   sodipodi:docname="cloud.svg">
  <metadata
     id="metadata10">
    <rdf:RDF>
      <cc:Work
         rdf:about="">
        <dc:format>image/svg+xml</dc:format>
        <dc:type
           rdf:resource="http://purl.org/dc/dcmitype/StillImage" />
        <dc:title></dc:title>
      </cc:Work>
    </rdf:RDF>
  </metadata>
  <defs
     id="defs8" />
  <sodipodi:namedview
     pagecolor="#ffffff"
     bordercolor="#666666"
     borderopacity="1"
     objecttolerance="10"
     gridtolerance="10"
     guidetolerance="10"
     inkscape:pageopacity="0"
     inkscape:pageshadow="2"
     inkscape:window-width="1005"
     inkscape:window-height="604"
     id="namedview6"
     showgrid="false"
     fit-margin-top="0"
     fit-margin-left="0"
     fit-margin-right="0"
     fit-margin-bottom="0"
     inkscape:zoom="7.375"
     inkscape:cx="43.120644"
     inkscape:cy="37.693915"
     inkscape:window-x="103"
     inkscape:window-y="12"
     inkscape:window-maximized="0"
     inkscape:current-layer="svg2" />
  <path
     d="m 95.1755,53.10634 c 1.0675,-0.7945 2.1455,-1.5715 3.1115,-2.5375 2.891,-2.8945 5.089,-6.4155 6.517,-10.4685 0.455,-1.267 0.133,-2.688 -0.826,-3.6365 -0.952,-0.9555 -2.366,-1.281 -3.6365,-0.8295 -7.742,2.7335 -16.1175,0.875 -21.854,-4.8685 -5.7435,-5.7435 -7.609,-14.115501 -4.8685,-21.8540008 0.448,-1.2705 0.126,-2.6845001 -0.8295,-3.6400001 -0.9485,-0.9485 -2.366,-1.2775 -3.6365,-0.8295 -4.0565,1.4385 -7.574,3.6365001 -10.465,6.5239999 -7.336,7.329 -9.6215,17.720501 -7.105,27.079501 -9.4605,1.2075 -17.9655,6.2335 -23.6285,13.9545 -1.1445,-0.1645 -2.2925,-0.245 -3.4545,-0.245 -13.5065,0 -24.5,10.9935 -24.5,24.5 0,13.5065 10.9935,24.5 24.5,24.5 2.996,0 5.9255,-0.546 8.687,-1.603 6.335,5.523 14.392,8.603 22.813,8.603 8.4315,0 16.478,-3.08 22.813,-8.603 2.7615,1.057 5.691,1.603 8.687,1.603 13.5065,0 24.5,-10.9935 24.5,-24.5 0,-10.815 -7.091,-19.9115 -16.8315,-23.1525 z M 63.644,15.918839 c 0.5565,-0.5635 1.1515,-1.0885 1.7815,-1.582 -0.4935,7.871501 2.3485,15.613501 8.1165,21.378001 5.768,5.768 13.5135,8.603 21.3815,8.1165 -3.017,3.8465 -7.175,6.2405 -11.62,7.259 -5.9885,-7.602 -14.7875,-12.3865 -24.4895,-13.167 -2.6845,-7.427 -1.113,-16.065 4.83,-22.008001 z M 87.507,93.75884 c -3.745,0 -7.1995,-1.204 -10.0485,-3.2095 -5.1345,6.188 -12.782,10.2095 -21.4515,10.2095 -8.6695,0 -16.317,-4.018 -21.4515,-10.2095 -2.8455,2.0055 -6.3035,3.2095 -10.0485,3.2095 -9.667,0 -17.5,-7.833 -17.5,-17.5 0,-9.667 7.833,-17.5 17.5,-17.5 2.366,0 4.606,0.4795 6.657,1.3265 4.417,-8.61 13.069,-14.6335 23.2575,-15.211 0.532,-0.0315 1.0535,-0.1155 1.5855,-0.1155 2.8245,0 5.537,0.441 8.0955,1.2215 3.4545,1.057 6.6045,2.779 9.338,4.998 2.611,2.1175 4.7985,4.718 6.5205,7.6335 0.2905,0.4935 0.6195,0.9555 0.8855,1.4735 2.0545,-0.847 4.3015,-1.3265 6.664,-1.3265 9.667,0 17.5,7.833 17.5,17.5 0,9.667 -7.833,17.5 -17.5,17.5 z"
     id="path4"
     inkscape:connector-curvature="0" />
</svg>
