<?xml version="1.0" encoding="UTF-8" standalone="no"?>
<!-- Generated by IcoMoon.io -->

<svg
   xmlns:dc="http://purl.org/dc/elements/1.1/"
   xmlns:cc="http://creativecommons.org/ns#"
   xmlns:rdf="http://www.w3.org/1999/02/22-rdf-syntax-ns#"
   xmlns:svg="http://www.w3.org/2000/svg"
   xmlns="http://www.w3.org/2000/svg"
   xmlns:sodipodi="http://sodipodi.sourceforge.net/DTD/sodipodi-0.dtd"
   xmlns:inkscape="http://www.inkscape.org/namespaces/inkscape"
   version="1.1"
   width="112"
   height="112"
   viewBox="0 0 112 112"
   id="svg3458"
   inkscape:version="0.91 r13725"
   sodipodi:docname="cloudy2.svg">
  <metadata
     id="metadata3466">
    <rdf:RDF>
      <cc:Work
         rdf:about="">
        <dc:format>image/svg+xml</dc:format>
        <dc:type
           rdf:resource="http://purl.org/dc/dcmitype/StillImage" />
        <dc:title></dc:title>
      </cc:Work>
    </rdf:RDF>
  </metadata>
  <defs
     id="defs3464" />
  <sodipodi:namedview
     pagecolor="#ffffff"
     bordercolor="#666666"
     borderopacity="1"
     objecttolerance="10"
     gridtolerance="10"
     guidetolerance="10"
     inkscape:pageopacity="0"
     inkscape:pageshadow="2"
     inkscape:window-width="1121"
     inkscape:window-height="589"
     id="namedview3462"
     showgrid="false"
     inkscape:zoom="7.375"
     inkscape:cx="-0.94915254"
     inkscape:cy="16"
     inkscape:window-x="0"
     inkscape:window-y="0"
     inkscape:window-maximized="0"
     inkscape:current-layer="svg3458" />
  <path
     d="m 111.9965,40.999 c 0,-10.7555 -8.75,-19.502 -19.5055,-19.502 -0.525,0 -1.043,0.0245 -1.5645,0.063 -5.0575,-6.3105 -12.684,-10.059 -20.93,-10.059 -8.2425,0 -15.8725,3.745 -20.93,10.059 -0.518,-0.042 -1.043,-0.063 -1.5715,-0.063 C 36.75,21.497 28,30.2435 28,40.999 c 0,1.127 0.1505,2.2085 0.329,3.29 -0.119,0.154 -0.259,0.2975 -0.3745,0.455 C 26.81,44.5795 25.662,44.499 24.5,44.499 10.9935,44.499 0,55.4925 0,68.999 c 0,13.5065 10.9935,24.5 24.5,24.5 2.996,0 5.9255,-0.546 8.687,-1.603 6.335,5.523 14.392,8.603 22.813,8.603 8.4315,0 16.478,-3.08 22.813,-8.603 2.7615,1.057 5.691,1.603 8.687,1.603 13.5065,0 24.5,-10.9935 24.5,-24.5 0,-5.6175 -1.9775,-10.738 -5.1765,-14.875 C 110.012,50.645 112,46.067 112,40.999 Z m -24.5,45.5 c -3.745,0 -7.1995,-1.204 -10.0485,-3.2095 -5.1345,6.188 -12.782,10.2095 -21.4515,10.2095 -8.6695,0 -16.317,-4.018 -21.4515,-10.2095 -2.8455,2.0055 -6.3035,3.2095 -10.0485,3.2095 -9.667,0 -17.5,-7.833 -17.5,-17.5 0,-9.667 7.833,-17.5 17.5,-17.5 2.366,0 4.606,0.4795 6.657,1.3265 0.1225,-0.231 0.273,-0.4375 0.3955,-0.6615 1.232,-2.247 2.7475,-4.305 4.522,-6.1355 5.0505,-5.2325 12.068,-8.533 19.9255,-8.533 10.8745,0 20.1985,6.272 24.836,15.3265 1.2355,-0.5075 2.5515,-0.833 3.9095,-1.0535 l 2.7545,-0.273 c 2.6985,0 5.222,0.665 7.5075,1.75 2.4745,1.183 4.599,2.926 6.265,5.0715 2.296,2.9575 3.7275,6.6395 3.7275,10.6785 0,9.667 -7.833,17.5 -17.5,17.5 z m 14.343,-37.268 c -4.0425,-2.9435 -8.9705,-4.732 -14.343,-4.732 -1.162,0 -2.31,0.0805 -3.4545,0.245 C 77.5075,35.84 67.193,30.499 55.9965,30.499 c -7.4655,0 -14.5075,2.415 -20.3315,6.636 1.6345,-4.998 6.286,-8.6345 11.8265,-8.6345 1.694,0 3.2935,0.343 4.7565,0.9485 3.3215,-6.468 9.982,-10.941 17.745,-10.941 7.763,0 14.427,4.4765 17.738,10.941 1.4735,-0.6055 3.08,-0.9485 4.7565,-0.9485 6.909,0 12.5055,5.5965 12.5055,12.502 0,3.1675 -1.218,6.0235 -3.157,8.2285 z"
     id="path3460"
     inkscape:connector-curvature="0" />
</svg>
