<?xml version="1.0" encoding="UTF-8" standalone="no"?>
<!-- Generated by IcoMoon.io -->

<svg
   xmlns:dc="http://purl.org/dc/elements/1.1/"
   xmlns:cc="http://creativecommons.org/ns#"
   xmlns:rdf="http://www.w3.org/1999/02/22-rdf-syntax-ns#"
   xmlns:svg="http://www.w3.org/2000/svg"
   xmlns="http://www.w3.org/2000/svg"
   xmlns:sodipodi="http://sodipodi.sourceforge.net/DTD/sodipodi-0.dtd"
   xmlns:inkscape="http://www.inkscape.org/namespaces/inkscape"
   version="1.1"
   width="112"
   height="112"
   viewBox="0 0 112 112"
   id="svg3414"
   inkscape:version="0.91 r13725"
   sodipodi:docname="cloudy.svg">
  <metadata
     id="metadata3422">
    <rdf:RDF>
      <cc:Work
         rdf:about="">
        <dc:format>image/svg+xml</dc:format>
        <dc:type
           rdf:resource="http://purl.org/dc/dcmitype/StillImage" />
        <dc:title></dc:title>
      </cc:Work>
    </rdf:RDF>
  </metadata>
  <defs
     id="defs3420" />
  <sodipodi:namedview
     pagecolor="#ffffff"
     bordercolor="#666666"
     borderopacity="1"
     objecttolerance="10"
     gridtolerance="10"
     guidetolerance="10"
     inkscape:pageopacity="0"
     inkscape:pageshadow="2"
     inkscape:window-width="1025"
     inkscape:window-height="632"
     id="namedview3418"
     showgrid="false"
     inkscape:zoom="7.375"
     inkscape:cx="-0.94915254"
     inkscape:cy="16"
     inkscape:window-x="0"
     inkscape:window-y="0"
     inkscape:window-maximized="0"
     inkscape:current-layer="svg3414" />
  <path
     d="m 45.5,14.00175 c 1.932,0 3.5,-1.568 3.5,-3.5 l 0,-7 c 0,-1.932 -1.568,-3.5 -3.5,-3.5 -1.932,0 -3.5,1.568 -3.5,3.5 l 0,7 c 0,1.932 1.568,3.5 3.5,3.5 z m 27.2195,9.2225 4.949,-4.949 c 1.3685,-1.3685 1.3685,-3.5805 0,-4.949 -1.3685,-1.3685 -3.5805,-1.3685 -4.949,0 l -4.949,4.949 c -1.3685,1.3685 -1.3685,3.5805 0,4.949 1.3685,1.3685 3.5805,1.3685 4.949,0 z M 3.5,49.00175 l 7,0 c 1.932,0 3.5,-1.568 3.5,-3.5 0,-1.932 -1.568,-3.5 -3.5,-3.5 l -7,0 c -1.932,0 -3.5,1.568 -3.5,3.5 0,1.932 1.568,3.5 3.5,3.5 z m 73.5,-3.5 c 0,1.932 1.568,3.5 3.5,3.5 l 7,0 c 1.932,0 3.5,-1.568 3.5,-3.5 0,-1.932 -1.568,-3.5 -3.5,-3.5 l -7,0 c -1.932,0 -3.5,1.568 -3.5,3.5 z M 18.2735,23.22425 c 1.3685,1.3685 3.584,1.3685 4.949,0 1.365,-1.3685 1.3685,-3.5805 0,-4.949 l -4.949,-4.949 c -1.3685,-1.3685 -3.5805,-1.3685 -4.949,0 -1.3685,1.3685 -1.3685,3.5805 0,4.949 l 4.949,4.949 z M 87.5,56.00175 c -1.162,0 -2.31,0.0805 -3.4545,0.245 -3.668,-5.005 -8.5575,-8.8235 -14.1015,-11.2665 -0.2835,-13.2615 -11.116,-23.982 -24.444,-23.982 -13.5065,0 -24.5,10.9935 -24.5,24.5 0,3.815 0.9485,7.3815 2.5165,10.5945 C 10.472,56.62475 0,67.33125 0,80.49825 c 0,13.5065 10.9935,24.5 24.5,24.5 2.996,0 5.9255,-0.546 8.687,-1.603 6.335,5.523 14.392,8.603 22.813,8.603 8.4315,0 16.478,-3.08 22.813,-8.603 2.7615,1.057 5.691,1.603 8.687,1.603 13.5065,0 24.5,-10.9935 24.5,-24.5 0,-13.5065 -10.9935,-24.5 -24.5,-24.5 z m -42,-28 c 8.708,0 15.8725,6.3805 17.2165,14.7105 -2.191,-0.4375 -4.431,-0.7105 -6.7165,-0.7105 -10.0485,0 -19.3585,4.333 -25.893,11.648 -1.2985,-2.443 -2.107,-5.187 -2.107,-8.148 0,-9.667 7.833,-17.5 17.5,-17.5 z m 42,70 c -3.745,0 -7.1995,-1.204 -10.0485,-3.2095 -5.1345,6.188 -12.782,10.2095 -21.4515,10.2095 -8.6695,0 -16.317,-4.018 -21.4515,-10.2095 -2.8455,2.0055 -6.3035,3.2095 -10.0485,3.2095 -9.667,0 -17.5,-7.833 -17.5,-17.5 0,-9.667 7.833,-17.5 17.5,-17.5 1.694,0 3.2935,0.3185 4.8405,0.7735 0.616,0.1715 1.239,0.3115 1.82,0.553 0.9555,-1.8725 2.1595,-3.5875 3.4965,-5.194 5.1135,-6.153 12.719,-10.1325 21.3465,-10.1325 2.2155,0 4.34,0.3185 6.398,0.812 2.31,0.546 4.494,1.3755 6.5275,2.471 5.096,2.7055 9.2785,6.8985 11.914,12.0435 2.0545,-0.847 4.3015,-1.3265 6.664,-1.3265 9.667,0 17.5,7.833 17.5,17.5 0,9.667 -7.833,17.5 -17.5,17.5 z"
     id="path3416"
     inkscape:connector-curvature="0" />
</svg>
