<?xml version="1.0" encoding="UTF-8" standalone="no"?>
<!-- Generated by IcoMoon.io -->

<svg
   xmlns:dc="http://purl.org/dc/elements/1.1/"
   xmlns:cc="http://creativecommons.org/ns#"
   xmlns:rdf="http://www.w3.org/1999/02/22-rdf-syntax-ns#"
   xmlns:svg="http://www.w3.org/2000/svg"
   xmlns="http://www.w3.org/2000/svg"
   xmlns:sodipodi="http://sodipodi.sourceforge.net/DTD/sodipodi-0.dtd"
   xmlns:inkscape="http://www.inkscape.org/namespaces/inkscape"
   version="1.1"
   width="112"
   height="112"
   viewBox="0 0 112 112"
   id="svg3502"
   inkscape:version="0.91 r13725"
   sodipodi:docname="lightning.svg">
  <metadata
     id="metadata3510">
    <rdf:RDF>
      <cc:Work
         rdf:about="">
        <dc:format>image/svg+xml</dc:format>
        <dc:type
           rdf:resource="http://purl.org/dc/dcmitype/StillImage" />
        <dc:title></dc:title>
      </cc:Work>
    </rdf:RDF>
  </metadata>
  <defs
     id="defs3508" />
  <sodipodi:namedview
     pagecolor="#ffffff"
     bordercolor="#666666"
     borderopacity="1"
     objecttolerance="10"
     gridtolerance="10"
     guidetolerance="10"
     inkscape:pageopacity="0"
     inkscape:pageshadow="2"
     inkscape:window-width="1083"
     inkscape:window-height="673"
     id="namedview3506"
     showgrid="false"
     inkscape:zoom="7.375"
     inkscape:cx="-0.94915254"
     inkscape:cy="16"
     inkscape:window-x="0"
     inkscape:window-y="0"
     inkscape:window-maximized="0"
     inkscape:current-layer="svg3502" />
  <path
     d="m 87.497266,17.499454 c -1.161964,0 -2.309928,0.0805 -3.454392,0.244991 C 77.508578,8.8407235 67.1944,3.4998905 55.99825,3.4998905 44.8021,3.4998905 34.491422,8.8407235 27.953626,17.744446 26.809162,17.579951 25.661198,17.499454 24.499234,17.499454 10.993156,17.499454 0,28.49261 0,41.998688 c 0,13.506078 10.993156,24.499235 24.499234,24.499235 2.995907,0 5.925315,-0.545984 8.686729,-1.602951 4.710853,4.105371 10.370176,6.845786 16.428487,7.99025 l -7.615762,7.615763 6.999781,6.99978 -6.999781,20.999345 20.999343,-20.999345 -6.999781,-6.99978 2.407925,-7.216775 c 7.538764,-0.531983 14.682041,-3.398393 20.407862,-8.385738 2.761414,1.056967 5.690822,1.602949 8.686729,1.602949 C 101.00684,66.501422 112,55.508265 112,42.002188 112,28.49611 101.00684,17.502954 87.500766,17.502954 Z m 0,41.998686 c -3.744883,0 -7.199275,-1.203962 -10.048186,-3.209399 -4.143871,4.994344 -9.967689,8.448736 -16.596482,9.649198 l -4.854348,0.559984 c -8.669229,0 -16.31649,-4.017876 -21.45083,-10.209182 -2.845411,2.005437 -6.303303,3.209399 -10.048186,3.209399 -9.666698,0 -17.4994527,-7.832755 -17.4994527,-17.499452 0,-9.666698 7.8327547,-17.499453 17.4994527,-17.499453 2.365926,0 4.605856,0.482985 6.656792,1.329958 4.644355,-9.057716 13.968064,-15.32952 24.842224,-15.32952 10.87416,0 20.197869,6.271804 24.835224,15.32952 2.054436,-0.846973 4.301366,-1.329958 6.663792,-1.329958 9.666698,0 17.499454,7.832755 17.499454,17.499453 0,9.666697 -7.832756,17.499453 -17.499454,17.499453 z"
     id="path3504"
     inkscape:connector-curvature="0" />
</svg>
