<?xml version="1.0" encoding="UTF-8" standalone="no"?>
<!-- Generated by IcoMoon.io -->

<svg
   xmlns:dc="http://purl.org/dc/elements/1.1/"
   xmlns:cc="http://creativecommons.org/ns#"
   xmlns:rdf="http://www.w3.org/1999/02/22-rdf-syntax-ns#"
   xmlns:svg="http://www.w3.org/2000/svg"
   xmlns="http://www.w3.org/2000/svg"
   xmlns:sodipodi="http://sodipodi.sourceforge.net/DTD/sodipodi-0.dtd"
   xmlns:inkscape="http://www.inkscape.org/namespaces/inkscape"
   version="1.1"
   width="112"
   height="112"
   viewBox="0 0 112 112"
   id="svg3546"
   inkscape:version="0.91 r13725"
   sodipodi:docname="lightning2.svg">
  <metadata
     id="metadata3554">
    <rdf:RDF>
      <cc:Work
         rdf:about="">
        <dc:format>image/svg+xml</dc:format>
        <dc:type
           rdf:resource="http://purl.org/dc/dcmitype/StillImage" />
        <dc:title></dc:title>
      </cc:Work>
    </rdf:RDF>
  </metadata>
  <defs
     id="defs3552" />
  <sodipodi:namedview
     pagecolor="#ffffff"
     bordercolor="#666666"
     borderopacity="1"
     objecttolerance="10"
     gridtolerance="10"
     guidetolerance="10"
     inkscape:pageopacity="0"
     inkscape:pageshadow="2"
     inkscape:window-width="1060"
     inkscape:window-height="610"
     id="namedview3550"
     showgrid="false"
     inkscape:zoom="7.375"
     inkscape:cx="-0.94915254"
     inkscape:cy="16"
     inkscape:window-x="0"
     inkscape:window-y="0"
     inkscape:window-maximized="0"
     inkscape:current-layer="svg3546" />
  <path
     d="m 87.5,17.5 c -1.162,0 -2.31,0.0805 -3.4545,0.245 C 77.511,8.841 67.1965,3.5 56,3.5 44.8035,3.5 34.4925,8.841 27.9545,17.745 26.81,17.5805 25.662,17.5 24.5,17.5 10.9935,17.5 0,28.4935 0,42 c 0,13.5065 10.9935,24.5 24.5,24.5 2.996,0 5.9255,-0.546 8.687,-1.603 2.688,2.3415 5.7435,4.1475 8.9495,5.558 L 47.586,65.0125 C 42.455,63.343 37.926,60.361 34.5485,56.2905 31.7065,58.296 28.245,59.5 24.5,59.5 14.833,59.5 7,51.667 7,42 7,32.333 14.833,24.5 24.5,24.5 c 2.366,0 4.606,0.483 6.657,1.33 C 35.8015,16.772 45.1255,10.5 56,10.5 c 10.8745,0 20.1985,6.272 24.836,15.33 2.0545,-0.847 4.3015,-1.33 6.664,-1.33 9.667,0 17.5,7.833 17.5,17.5 0,9.667 -7.833,17.5 -17.5,17.5 -3.745,0 -7.1995,-1.204 -10.0485,-3.2095 -2.268,2.7405 -5.0995,4.9595 -8.232,6.6885 l -2.94,8.8235 c 4.5675,-1.435 8.8585,-3.7065 12.5335,-6.909 2.7615,1.057 5.691,1.603 8.687,1.603 13.5065,0 24.5,-10.9935 24.5,-24.5 0,-13.5065 -10.9935,-24.5 -24.5,-24.5 z m -45.5,63 7,7 -7,21 21,-21 -7,-7 7,-21 -21,21 z"
     id="path3548"
     inkscape:connector-curvature="0" />
</svg>
