<?xml version="1.0" encoding="UTF-8" standalone="no"?>
<!-- Generated by IcoMoon.io -->

<svg
   xmlns:dc="http://purl.org/dc/elements/1.1/"
   xmlns:cc="http://creativecommons.org/ns#"
   xmlns:rdf="http://www.w3.org/1999/02/22-rdf-syntax-ns#"
   xmlns:svg="http://www.w3.org/2000/svg"
   xmlns="http://www.w3.org/2000/svg"
   xmlns:sodipodi="http://sodipodi.sourceforge.net/DTD/sodipodi-0.dtd"
   xmlns:inkscape="http://www.inkscape.org/namespaces/inkscape"
   version="1.1"
   width="112"
   height="112"
   viewBox="0 0 112 112"
   id="svg3590"
   inkscape:version="0.91 r13725"
   sodipodi:docname="lightning3.svg">
  <metadata
     id="metadata3598">
    <rdf:RDF>
      <cc:Work
         rdf:about="">
        <dc:format>image/svg+xml</dc:format>
        <dc:type
           rdf:resource="http://purl.org/dc/dcmitype/StillImage" />
        <dc:title></dc:title>
      </cc:Work>
    </rdf:RDF>
  </metadata>
  <defs
     id="defs3596" />
  <sodipodi:namedview
     pagecolor="#ffffff"
     bordercolor="#666666"
     borderopacity="1"
     objecttolerance="10"
     gridtolerance="10"
     guidetolerance="10"
     inkscape:pageopacity="0"
     inkscape:pageshadow="2"
     inkscape:window-width="955"
     inkscape:window-height="542"
     id="namedview3594"
     showgrid="false"
     inkscape:zoom="7.375"
     inkscape:cx="-0.94915254"
     inkscape:cy="16"
     inkscape:window-x="0"
     inkscape:window-y="0"
     inkscape:window-maximized="0"
     inkscape:current-layer="svg3590" />
  <path
     d="m 41.9965,84 7,7 -7,21 21,-21 -7,-7 7,-14 -21,14 z m 70,-54.5055 c 0,-10.752 -8.75,-19.495 -19.5055,-19.495 -0.525,0 -1.043,0.0175 -1.5645,0.0595 C 85.869,3.752 78.2425,0 69.9965,0 61.754,0 54.124,3.752 49.0665,10.059 48.5485,10.017 48.0235,9.9995 47.495,9.9995 36.75,9.9995 28,18.746 28,29.4945 c 0,1.127 0.1505,2.2155 0.329,3.29 -0.119,0.154 -0.259,0.2975 -0.3745,0.455 C 26.81,33.075 25.662,32.9945 24.5,32.9945 10.9935,32.9945 0,43.988 0,57.4945 c 0,13.5065 10.9935,24.5 24.5,24.5 2.996,0 5.9255,-0.546 8.687,-1.603 0.2415,0.21 0.5285,0.357 0.7735,0.56 l 6.195,-4.13 C 38.0905,75.3585 36.162,73.731 34.5485,71.7885 31.703,73.7905 28.245,74.991 24.5,74.991 14.833,74.991 7,67.1615 7,57.491 c 0,-9.66 7.833,-17.5 17.5,-17.5 2.366,0 4.606,0.483 6.657,1.33 0.1225,-0.238 0.273,-0.4375 0.3955,-0.665 1.232,-2.247 2.7475,-4.3015 4.522,-6.1355 5.0505,-5.2255 12.068,-8.533 19.9255,-8.533 10.8745,0 20.1985,6.272 24.836,15.33 1.2355,-0.511 2.5515,-0.84 3.9095,-1.057 L 87.5,39.9875 c 2.6985,0 5.222,0.665 7.5075,1.75 2.4745,1.1865 4.599,2.926 6.265,5.075 2.296,2.9575 3.7275,6.636 3.7275,10.675 0,9.6705 -7.833,17.5 -17.5,17.5 -3.745,0 -7.1995,-1.204 -10.0485,-3.2025 -3.0625,3.6925 -7.0945,6.468 -11.627,8.218 l -1.309,2.611 3.9935,3.9935 c 3.731,-1.4525 7.224,-3.542 10.304,-6.2195 2.7615,1.057 5.691,1.603 8.687,1.603 13.5065,0 24.5,-10.9935 24.5,-24.5 0,-5.614 -1.9775,-10.738 -5.1765,-14.875 C 110.012,39.144 112,34.5625 112,29.491 Z m -10.157,8.232 c -4.0425,-2.94 -8.9705,-4.732 -14.343,-4.732 -1.162,0 -2.31,0.0805 -3.4545,0.245 -6.5345,-8.9005 -16.849,-14.245 -28.0455,-14.245 -7.4655,0 -14.5075,2.4185 -20.3315,6.6395 1.6345,-4.998 6.286,-8.6345 11.8265,-8.6345 1.694,0 3.2935,0.343 4.7565,0.9485 C 55.5695,11.4765 62.23,7 69.993,7 c 7.763,0 14.427,4.4765 17.738,10.948 1.4735,-0.6055 3.08,-0.9485 4.7565,-0.9485 6.909,0 12.5055,5.5965 12.5055,12.495 0,3.171 -1.218,6.0305 -3.157,8.232 z"
     id="path3592"
     inkscape:connector-curvature="0" />
</svg>
