<?xml version="1.0" encoding="UTF-8" standalone="no"?>
<!-- Generated by IcoMoon.io -->

<svg
   xmlns:dc="http://purl.org/dc/elements/1.1/"
   xmlns:cc="http://creativecommons.org/ns#"
   xmlns:rdf="http://www.w3.org/1999/02/22-rdf-syntax-ns#"
   xmlns:svg="http://www.w3.org/2000/svg"
   xmlns="http://www.w3.org/2000/svg"
   xmlns:sodipodi="http://sodipodi.sourceforge.net/DTD/sodipodi-0.dtd"
   xmlns:inkscape="http://www.inkscape.org/namespaces/inkscape"
   version="1.1"
   width="112"
   height="112"
   viewBox="0 0 112 112"
   id="svg3698"
   inkscape:version="0.91 r13725"
   sodipodi:docname="moon.svg">
  <metadata
     id="metadata3706">
    <rdf:RDF>
      <cc:Work
         rdf:about="">
        <dc:format>image/svg+xml</dc:format>
        <dc:type
           rdf:resource="http://purl.org/dc/dcmitype/StillImage" />
        <dc:title></dc:title>
      </cc:Work>
    </rdf:RDF>
  </metadata>
  <defs
     id="defs3704" />
  <sodipodi:namedview
     pagecolor="#ffffff"
     bordercolor="#666666"
     borderopacity="1"
     objecttolerance="10"
     gridtolerance="10"
     guidetolerance="10"
     inkscape:pageopacity="0"
     inkscape:pageshadow="2"
     inkscape:window-width="1118"
     inkscape:window-height="585"
     id="namedview3702"
     showgrid="false"
     inkscape:zoom="7.375"
     inkscape:cx="-0.94915254"
     inkscape:cy="16"
     inkscape:window-x="0"
     inkscape:window-y="0"
     inkscape:window-maximized="0"
     inkscape:current-layer="svg3698" />
  <path
     d="m 98.187842,95.171593 c -22.416298,22.437877 -58.920996,22.437877 -81.358873,0 -22.437876,-22.437877 -22.437876,-58.935383 0,-81.366068 C 22.769253,7.8796238 30.00403,3.3560908 38.324742,0.40752376 c 2.624944,-0.920529 5.52317,-0.251708 7.472101,1.70441604 1.970505,1.963314 2.632136,4.868731 1.704415,7.4721 C 41.863023,25.484727 45.703352,42.69429 57.504811,54.495751 69.284696,66.282827 86.49426,70.115965 102.41652,64.499304 c 2.60337,-0.927721 5.51598,-0.258899 7.4721,1.704415 1.96332,1.948931 2.62494,4.86154 1.69723,7.472101 -2.93419,8.320712 -7.46492,15.56268 -13.398008,21.495773 z M 26.99793,23.974485 c -16.828407,16.828408 -16.828407,44.206932 0,61.028147 C 44.976997,102.98889 75.598945,101.37078 91.2695,81.334902 75.109915,82.348922 59.187653,76.50932 47.335851,64.664711 35.48405,52.820101 29.658832,36.897839 30.66566,20.738254 c -1.294493,1.014018 -2.51707,2.085571 -3.66773,3.243423 z"
     id="path3700"
     inkscape:connector-curvature="0" />
</svg>
