<?xml version="1.0" encoding="UTF-8" standalone="no"?>
<!-- Generated by IcoMoon.io -->

<svg
   xmlns:dc="http://purl.org/dc/elements/1.1/"
   xmlns:cc="http://creativecommons.org/ns#"
   xmlns:rdf="http://www.w3.org/1999/02/22-rdf-syntax-ns#"
   xmlns:svg="http://www.w3.org/2000/svg"
   xmlns="http://www.w3.org/2000/svg"
   xmlns:sodipodi="http://sodipodi.sourceforge.net/DTD/sodipodi-0.dtd"
   xmlns:inkscape="http://www.inkscape.org/namespaces/inkscape"
   version="1.1"
   width="112"
   height="112"
   viewBox="0 0 112 112"
   id="svg3791"
   inkscape:version="0.91 r13725"
   sodipodi:docname="rainy2.svg">
  <metadata
     id="metadata3799">
    <rdf:RDF>
      <cc:Work
         rdf:about="">
        <dc:format>image/svg+xml</dc:format>
        <dc:type
           rdf:resource="http://purl.org/dc/dcmitype/StillImage" />
        <dc:title></dc:title>
      </cc:Work>
    </rdf:RDF>
  </metadata>
  <defs
     id="defs3797" />
  <sodipodi:namedview
     pagecolor="#ffffff"
     bordercolor="#666666"
     borderopacity="1"
     objecttolerance="10"
     gridtolerance="10"
     guidetolerance="10"
     inkscape:pageopacity="0"
     inkscape:pageshadow="2"
     inkscape:window-width="907"
     inkscape:window-height="567"
     id="namedview3795"
     showgrid="false"
     inkscape:zoom="7.375"
     inkscape:cx="-0.94915254"
     inkscape:cy="16"
     inkscape:window-x="0"
     inkscape:window-y="0"
     inkscape:window-maximized="0"
     inkscape:current-layer="svg3791" />
  <path
     d="m 87.5,14 c -1.162,0 -2.31,0.0805 -3.4545,0.245 C 77.511,5.341 67.1965,0 56,0 44.8035,0 34.4925,5.341 27.9545,14.245 26.81,14.0805 25.662,14 24.5,14 10.9935,14 0,24.9935 0,38.5 0,52.0065 10.9935,63 24.5,63 27.496,63 30.4255,62.454 33.187,61.397 39.522,66.92 47.579,70 56,70 64.4315,70 72.478,66.92 78.813,61.397 81.5745,62.454 84.504,63 87.5,63 101.0065,63 112,52.0065 112,38.5 112,24.9935 101.0065,14 87.5,14 Z m 0,42 C 83.755,56 80.3005,54.796 77.4515,52.7905 72.317,58.9785 64.6695,63 56,63 47.3305,63 39.683,58.982 34.5485,52.7905 31.703,54.796 28.245,56 24.5,56 14.833,56 7,48.167 7,38.5 7,28.833 14.833,21 24.5,21 c 2.366,0 4.606,0.483 6.657,1.33 C 35.8015,13.272 45.1255,7 56,7 66.8745,7 76.1985,13.272 80.836,22.33 82.8905,21.483 85.1375,21 87.5,21 97.167,21 105,28.833 105,38.5 105,48.167 97.167,56 87.5,56 Z m -38.2795,49 c 0,3.8675 3.1325,7 7,7 3.8675,0 7,-3.1325 7,-7 0,-3.8675 -7,-14 -7,-14 0,0 -7,10.1325 -7,14 z M 77,98 c 0,3.8675 3.1325,7 7,7 3.8675,0 7,-3.1325 7,-7 0,-3.8675 -7,-14 -7,-14 0,0 -7,10.1325 -7,14 z M 21,84 c 0,3.8675 3.129,7 7,7 3.871,0 7,-3.1325 7,-7 0,-3.8675 -7,-14 -7,-14 0,0 -7,10.1325 -7,14 z"
     id="path3793"
     inkscape:connector-curvature="0" />
</svg>
