<?xml version="1.0" encoding="UTF-8" standalone="no"?>
<!-- Generated by IcoMoon.io -->

<svg
   xmlns:dc="http://purl.org/dc/elements/1.1/"
   xmlns:cc="http://creativecommons.org/ns#"
   xmlns:rdf="http://www.w3.org/1999/02/22-rdf-syntax-ns#"
   xmlns:svg="http://www.w3.org/2000/svg"
   xmlns="http://www.w3.org/2000/svg"
   xmlns:sodipodi="http://sodipodi.sourceforge.net/DTD/sodipodi-0.dtd"
   xmlns:inkscape="http://www.inkscape.org/namespaces/inkscape"
   version="1.1"
   width="112"
   height="112"
   viewBox="0 0 112 112"
   id="svg3879"
   inkscape:version="0.91 r13725"
   sodipodi:docname="snowy.svg">
  <metadata
     id="metadata3887">
    <rdf:RDF>
      <cc:Work
         rdf:about="">
        <dc:format>image/svg+xml</dc:format>
        <dc:type
           rdf:resource="http://purl.org/dc/dcmitype/StillImage" />
        <dc:title></dc:title>
      </cc:Work>
    </rdf:RDF>
  </metadata>
  <defs
     id="defs3885" />
  <sodipodi:namedview
     pagecolor="#ffffff"
     bordercolor="#666666"
     borderopacity="1"
     objecttolerance="10"
     gridtolerance="10"
     guidetolerance="10"
     inkscape:pageopacity="0"
     inkscape:pageshadow="2"
     inkscape:window-width="1046"
     inkscape:window-height="590"
     id="namedview3883"
     showgrid="false"
     inkscape:zoom="7.375"
     inkscape:cx="-0.94915254"
     inkscape:cy="16"
     inkscape:window-x="0"
     inkscape:window-y="0"
     inkscape:window-maximized="0"
     inkscape:current-layer="svg3879" />
  <path
     d="m 71.323,97.0515 -3.9375,-2.268 c 0.119,-0.6825 0.21,-1.379 0.21,-2.107 0,-0.728 -0.091,-1.421 -0.2205,-2.107 l 3.948,-2.275 c 1.841,-1.0745 2.471,-3.4405 1.414,-5.271 -1.0675,-1.855 -3.4265,-2.4885 -5.278,-1.421 l -3.9795,2.296 c -1.0675,-0.9065 -2.268,-1.617 -3.6085,-2.1 l 0,-4.571 c 0,-2.1385 -1.736,-3.8675 -3.8675,-3.8675 -2.1315,0 -3.864,1.7325 -3.864,3.8675 l 0,4.5675 c -1.3405,0.4795 -2.548,1.197 -3.6155,2.107 l -3.969,-2.296 c -1.855,-1.0675 -4.221,-0.4375 -5.285,1.4175 -1.0675,1.841 -0.4235,4.2105 1.421,5.278 l 3.927,2.268 c -0.1295,0.6895 -0.21,1.386 -0.21,2.1105 0,0.7245 0.0805,1.421 0.21,2.107 l -3.927,2.268 c -1.8515,1.0675 -2.4885,3.444 -1.421,5.292 1.0675,1.848 3.43,2.4745 5.278,1.407 l 3.9725,-2.282 c 1.0675,0.903 2.275,1.6135 3.619,2.093 l 0,4.5815 c 0,2.1315 1.7325,3.857 3.864,3.857 2.1315,0 3.8675,-1.722 3.8675,-3.857 l 0,-4.5815 c 1.3405,-0.4795 2.555,-1.19 3.6155,-2.107 l 3.9725,2.296 c 1.8515,1.0675 4.2105,0.4375 5.278,-1.407 1.0675,-1.8445 0.4375,-4.2105 -1.414,-5.292 z M 56,96.5475 c -2.1315,0 -3.8675,-1.736 -3.8675,-3.8675 0,-2.1315 1.736,-3.8605 3.8675,-3.8605 2.1315,0 3.864,1.729 3.864,3.8605 0,2.1315 -1.7325,3.8675 -3.864,3.8675 z m 31.5,-82.551 c -1.162,0 -2.31,0.0805 -3.4545,0.245 C 77.511,5.3375 67.1965,-0.0035 56,-0.0035 c -11.1965,0 -21.5075,5.341 -28.0455,14.245 C 26.81,14.077 25.662,13.9965 24.5,13.9965 10.9935,13.9965 0,24.99 0,38.4965 c 0,13.5065 10.9935,24.5 24.5,24.5 2.996,0 5.9255,-0.546 8.687,-1.603 6.335,5.523 14.392,8.603 22.813,8.603 8.4315,0 16.478,-3.08 22.813,-8.603 2.7615,1.057 5.691,1.603 8.687,1.603 13.5065,0 24.5,-10.9935 24.5,-24.5 0,-13.5065 -10.9935,-24.5 -24.5,-24.5 z m 0,42 c -3.745,0 -7.1995,-1.204 -10.0485,-3.2095 C 72.317,58.975 64.6695,62.9965 56,62.9965 c -8.6695,0 -16.317,-4.018 -21.4515,-10.2095 -2.8455,2.0055 -6.3035,3.2095 -10.0485,3.2095 -9.667,0 -17.5,-7.833 -17.5,-17.5 0,-9.667 7.833,-17.5 17.5,-17.5 2.366,0 4.606,0.483 6.657,1.33 4.6445,-9.058 13.9685,-15.33 24.843,-15.33 10.8745,0 20.1985,6.272 24.836,15.33 2.0545,-0.847 4.3015,-1.33 6.664,-1.33 9.667,0 17.5,7.833 17.5,17.5 0,9.667 -7.833,17.5 -17.5,17.5 z"
     id="path3881"
     inkscape:connector-curvature="0" />
</svg>
