<?xml version="1.0" encoding="UTF-8" standalone="no"?>
<!-- Generated by IcoMoon.io -->

<svg
   xmlns:dc="http://purl.org/dc/elements/1.1/"
   xmlns:cc="http://creativecommons.org/ns#"
   xmlns:rdf="http://www.w3.org/1999/02/22-rdf-syntax-ns#"
   xmlns:svg="http://www.w3.org/2000/svg"
   xmlns="http://www.w3.org/2000/svg"
   xmlns:sodipodi="http://sodipodi.sourceforge.net/DTD/sodipodi-0.dtd"
   xmlns:inkscape="http://www.inkscape.org/namespaces/inkscape"
   version="1.1"
   width="112"
   height="112"
   viewBox="0 0 112 112"
   id="svg3992"
   inkscape:version="0.91 r13725"
   sodipodi:docname="snowy3.svg">
  <metadata
     id="metadata4000">
    <rdf:RDF>
      <cc:Work
         rdf:about="">
        <dc:format>image/svg+xml</dc:format>
        <dc:type
           rdf:resource="http://purl.org/dc/dcmitype/StillImage" />
        <dc:title></dc:title>
      </cc:Work>
    </rdf:RDF>
  </metadata>
  <defs
     id="defs3998" />
  <sodipodi:namedview
     pagecolor="#ffffff"
     bordercolor="#666666"
     borderopacity="1"
     objecttolerance="10"
     gridtolerance="10"
     guidetolerance="10"
     inkscape:pageopacity="0"
     inkscape:pageshadow="2"
     inkscape:window-width="1140"
     inkscape:window-height="619"
     id="namedview3996"
     showgrid="false"
     inkscape:zoom="7.375"
     inkscape:cx="-0.94915254"
     inkscape:cy="16"
     inkscape:window-x="0"
     inkscape:window-y="0"
     inkscape:window-maximized="0"
     inkscape:current-layer="svg3992" />
  <path
     d="m 71.322043,97.048934 -3.937254,-2.267858 c 0.118992,-0.682457 0.209987,-1.378914 0.209987,-2.106868 0,-0.727955 -0.09099,-1.420911 -0.220487,-2.106868 l 3.947754,-2.274858 c 1.840885,-1.074433 2.470845,-3.440285 1.413911,-5.270671 -1.067433,-1.854884 -3.426286,-2.488344 -5.27767,-1.420911 l -3.979251,2.295857 c -1.067434,-0.906444 -2.267858,-1.6169 -3.608275,-2.099869 l 0,-4.570715 c 0,-2.138366 -1.735891,-3.867258 -3.867258,-3.867258 -2.131367,0 -3.863759,1.732392 -3.863759,3.867258 l 0,4.567215 c -1.340416,0.47947 -2.54784,1.196925 -3.615274,2.106868 L 44.555715,81.6044 c -1.854884,-1.067434 -4.220736,-0.437473 -5.284669,1.417411 -1.067434,1.840885 -0.423474,4.210237 1.420911,5.27767 l 3.926755,2.267859 c -0.129492,0.689456 -0.209987,1.385913 -0.209987,2.110368 0,0.724454 0.08049,1.420911 0.209987,2.106868 l -3.926755,2.267858 c -1.851384,1.067434 -2.488345,3.443786 -1.420911,5.291666 1.067433,1.84789 3.429785,2.47435 5.27767,1.40692 l 3.972252,-2.28186 c 1.067433,0.90294 2.274857,1.6134 3.618773,2.09287 l 0,4.58121 c 0,2.13137 1.732392,3.85676 3.863759,3.85676 2.131367,0 3.867258,-1.72189 3.867258,-3.85676 l 0,-4.58121 c 1.340417,-0.47947 2.554841,-1.18993 3.615274,-2.10687 l 3.972252,2.29586 c 1.851384,1.06743 4.210237,0.43747 5.27767,-1.40692 1.067434,-1.84438 0.437473,-4.210233 -1.413911,-5.291666 z M 56,96.544966 c -2.131367,0 -3.867258,-1.735892 -3.867258,-3.867258 0,-2.131367 1.735891,-3.860259 3.867258,-3.860259 2.131367,0 3.863759,1.728892 3.863759,3.860259 0,2.131366 -1.732392,3.867258 -3.863759,3.867258 z m 47.71952,-9.869383 -2.64234,-0.703456 c -0.063,-0.839948 -0.26598,-1.634398 -0.63346,-2.40085 l 1.91788,-1.91788 c 0.90295,-0.902944 0.89595,-2.358853 0,-3.247797 -0.89244,-0.895944 -2.34135,-0.902944 -3.244295,0 l -1.92138,1.91438 c -0.755952,-0.356978 -1.564402,-0.559965 -2.39735,-0.629961 l -0.703456,-2.638835 c -0.328979,-1.221423 -1.585401,-1.956377 -2.817324,-1.627398 -1.224923,0.332479 -1.942378,1.588901 -1.623898,2.817324 l 0.703456,2.603837 c -0.346478,0.237985 -0.675458,0.500469 -0.983439,0.80145 -0.300981,0.311481 -0.556465,0.63696 -0.79445,0.976439 L 85.975627,81.91938 c -1.224924,-0.328979 -2.491845,0.409474 -2.820824,1.627398 -0.328979,1.231923 0.409474,2.484845 1.623899,2.817324 l 2.624835,0.706956 c 0.0735,0.825948 0.283483,1.630898 0.65096,2.39735 l -1.92838,1.92838 c -0.892444,0.895944 -0.888944,2.348353 0.0105,3.240797 0.892444,0.892444 2.341353,0.902944 3.233798,0.0105 l 1.931879,-1.931879 c 0.755953,0.374477 1.567902,0.584464 2.407849,0.64746 L 94.4031,95.992 c 0.335979,1.224924 1.585401,1.956378 2.817324,1.627399 1.221424,-0.32898 1.959877,-1.585401 1.630898,-2.824324 l -0.703456,-2.603837 c 0.328979,-0.230986 0.664958,-0.493469 0.976439,-0.79445 0.300981,-0.304481 0.556465,-0.64396 0.79445,-0.979939 l 2.607335,0.703456 c 1.22493,0.328979 2.48835,-0.405975 2.81033,-1.623898 0.32898,-1.221424 -0.39548,-2.477846 -1.6169,-2.817324 z m -7.839512,1.462908 c -0.902944,0.902944 -2.355353,0.895944 -3.254797,0 -0.888944,-0.888944 -0.895944,-2.348353 0,-3.247797 0.895944,-0.892444 2.355353,-0.892444 3.254797,0 0.888944,0.895944 0.888944,2.358853 0,3.247797 z M 26.020874,74.916318 23.424036,75.612774 c -0.241485,-0.328979 -0.493469,-0.661458 -0.79795,-0.969439 -0.307981,-0.300981 -0.63696,-0.559965 -0.979939,-0.794451 l 0.696457,-2.610836 c 0.328979,-1.224924 -0.402475,-2.488345 -1.613399,-2.810325 -1.231923,-0.328979 -2.488345,0.402475 -2.817324,1.623899 l -0.710456,2.638835 c -0.832948,0.07 -1.630898,0.272983 -2.39385,0.63346 l -1.92838,-1.91788 c -0.902943,-0.902943 -2.351853,-0.895944 -3.244297,0 -0.895944,0.895944 -0.895944,2.351853 0,3.247797 l 1.91788,1.91788 c -0.360477,0.766452 -0.570464,1.571402 -0.63346,2.40085 L 8.2839825,79.67602 c -1.231923,0.335979 -1.9598775,1.585401 -1.6308981,2.817324 0.3324792,1.221424 1.5889007,1.942379 2.8208237,1.623899 l 2.5968379,-0.706956 c 0.230985,0.349978 0.493469,0.678957 0.808449,0.983438 0.300981,0.300982 0.629961,0.570465 0.96944,0.794451 l -0.696457,2.603837 c -0.328979,1.231923 0.402475,2.498844 1.620399,2.824323 1.231923,0.32898 2.477845,-0.402474 2.806825,-1.627398 l 0.710455,-2.624836 c 0.832948,-0.07 1.641398,-0.276483 2.40785,-0.643959 l 1.92138,1.921379 c 0.892444,0.902944 2.341353,0.885445 3.244297,-0.0105 0.888944,-0.888944 0.902943,-2.341353 0,-3.240797 l -1.92838,-1.92838 c 0.370977,-0.755952 0.587964,-1.571401 0.64396,-2.407849 l 2.638835,-0.696457 c 1.217924,-0.332479 1.945878,-1.5854 1.616899,-2.817324 -0.328979,-1.217923 -1.585401,-1.945878 -2.820824,-1.627398 z m -6.646085,6.226111 c -0.895944,0.895944 -2.351853,0.895944 -3.254796,0 -0.888945,-0.892445 -0.888945,-2.355353 0,-3.244298 0.902943,-0.892444 2.355353,-0.892444 3.254796,0 0.899444,0.892445 0.888945,2.351853 0,3.244298 z M 111.9965,38.497594 c 0,-13.505656 -10.99281,-24.498469 -24.498468,-24.498469 -1.161928,0 -2.309856,0.08049 -3.454285,0.244985 C 77.509656,5.340666 67.1958,0 56,0 44.8042,0 34.493844,5.340666 27.956253,14.24411 26.811824,14.07962 25.663896,13.999125 24.501969,13.999125 10.996313,13.999125 0.0035,24.991938 0.0035,38.497594 c 0,13.505656 10.992813,24.498469 24.498469,24.498469 2.995813,0 5.92513,-0.545966 8.686457,-1.6029 6.334604,5.522655 14.3911,8.602462 22.811574,8.602462 8.430973,0 16.47697,-3.079807 22.811574,-8.602462 2.761328,1.056934 5.690645,1.6029 8.686458,1.6029 13.505658,0 24.498468,-10.992813 24.498468,-24.498469 z M 77.45016,52.787201 C 72.31598,58.974814 64.668958,62.996063 56,62.996063 c -8.668958,0 -16.31598,-4.017749 -21.450159,-10.208862 -2.845322,2.005374 -6.303106,3.209299 -10.047872,3.209299 -9.666396,0 -17.4989065,-7.83251 -17.4989065,-17.498906 0,-9.666396 7.8325105,-17.498906 17.4989065,-17.498906 2.365852,0 4.605712,0.482969 6.656584,1.329916 C 35.802763,13.271171 45.12618,6.999563 56,6.999563 c 10.873821,0 20.197238,6.271608 24.834448,15.329041 2.054372,-0.846947 4.301231,-1.329916 6.663584,-1.329916 9.666395,0 17.498908,7.83251 17.498908,17.498906 0,9.666396 -7.832513,17.498906 -17.498908,17.498906 -3.744766,0 -7.19905,-1.203925 -10.047872,-3.209299 z"
     id="path3994"
     inkscape:connector-curvature="0" />
</svg>
