<?xml version="1.0" encoding="UTF-8" standalone="no"?>
<!-- Generated by IcoMoon.io -->

<svg
   xmlns:dc="http://purl.org/dc/elements/1.1/"
   xmlns:cc="http://creativecommons.org/ns#"
   xmlns:rdf="http://www.w3.org/1999/02/22-rdf-syntax-ns#"
   xmlns:svg="http://www.w3.org/2000/svg"
   xmlns="http://www.w3.org/2000/svg"
   xmlns:sodipodi="http://sodipodi.sourceforge.net/DTD/sodipodi-0.dtd"
   xmlns:inkscape="http://www.inkscape.org/namespaces/inkscape"
   version="1.1"
   width="112"
   height="112"
   viewBox="0 0 112 112"
   id="svg3835"
   inkscape:version="0.91 r13725"
   sodipodi:docname="snowflake.svg">
  <metadata
     id="metadata3843">
    <rdf:RDF>
      <cc:Work
         rdf:about="">
        <dc:format>image/svg+xml</dc:format>
        <dc:type
           rdf:resource="http://purl.org/dc/dcmitype/StillImage" />
        <dc:title></dc:title>
      </cc:Work>
    </rdf:RDF>
  </metadata>
  <defs
     id="defs3841" />
  <sodipodi:namedview
     pagecolor="#ffffff"
     bordercolor="#666666"
     borderopacity="1"
     objecttolerance="10"
     gridtolerance="10"
     guidetolerance="10"
     inkscape:pageopacity="0"
     inkscape:pageshadow="2"
     inkscape:window-width="1258"
     inkscape:window-height="687"
     id="namedview3839"
     showgrid="false"
     inkscape:zoom="7.375"
     inkscape:cx="-0.94915254"
     inkscape:cy="16"
     inkscape:window-x="0"
     inkscape:window-y="0"
     inkscape:window-maximized="0"
     inkscape:current-layer="svg3835" />
  <path
     d="m 100.41231,68.674966 -11.417828,-6.59087 c 0.363982,-1.982301 0.61037,-4.0094 0.61037,-6.092496 0,-2.094295 -0.246388,-4.126993 -0.627169,-6.109294 l 11.417827,-6.59647 c 5.36453,-3.107845 7.19004,-9.950703 4.1046,-15.287236 -3.09665,-5.358932 -9.928306,-7.19564 -15.287238,-4.110194 l -11.529824,6.658067 c -3.085446,-2.626269 -6.59647,-4.698165 -10.477076,-6.075697 l 0,-13.271336 C 67.205972,5.017349 62.194222,0 56.006532,0 49.824441,0 44.807092,5.017349 44.807092,11.19944 l 0,13.260137 c -3.880606,1.377531 -7.391631,3.449428 -10.477076,6.075696 L 22.822591,23.894005 C 17.463659,20.80296 10.609602,22.634068 7.512957,27.993 4.4275113,33.346333 6.2642194,40.189191 11.623151,43.285836 l 11.39543,6.58527 c -0.369581,1.987901 -0.610369,4.031799 -0.610369,6.131694 0,2.083096 0.240788,4.121394 0.610369,6.103695 l -11.406629,6.58527 C 6.2474203,71.782811 4.4051124,78.642468 7.5073573,84.0014 10.592803,89.337933 17.44686,91.174641 22.811392,88.089196 l 11.490625,-6.641268 c 3.085446,2.626268 6.60767,4.709364 10.499475,6.098095 l 0,13.254537 c 0,6.18769 5.017349,11.19944 11.19944,11.19944 6.19329,0 11.19944,-5.01175 11.19944,-11.19944 l 0,-13.271337 c 3.891806,-1.38313 7.414029,-3.455027 10.482676,-6.086895 l 11.518624,6.646868 c 5.358932,3.085445 12.207388,1.248737 15.287238,-4.087796 3.10224,-5.358932 1.27113,-12.20739 -4.0878,-15.309635 z M 44.807092,55.986001 c 0,-6.182091 5.011749,-11.19944 11.19944,-11.19944 6.182091,0 11.19944,5.017349 11.19944,11.19944 0,6.182091 -5.017349,11.19944 -11.19944,11.19944 -6.187691,0 -11.19944,-5.017349 -11.19944,-11.19944 z"
     id="path3837"
     inkscape:connector-curvature="0" />
</svg>
