<?xml version="1.0" encoding="UTF-8" standalone="no"?>
<!-- Generated by IcoMoon.io -->

<svg
   xmlns:dc="http://purl.org/dc/elements/1.1/"
   xmlns:cc="http://creativecommons.org/ns#"
   xmlns:rdf="http://www.w3.org/1999/02/22-rdf-syntax-ns#"
   xmlns:svg="http://www.w3.org/2000/svg"
   xmlns="http://www.w3.org/2000/svg"
   xmlns:sodipodi="http://sodipodi.sourceforge.net/DTD/sodipodi-0.dtd"
   xmlns:inkscape="http://www.inkscape.org/namespaces/inkscape"
   version="1.1"
   width="112"
   height="112"
   viewBox="0 0 112 112"
   id="svg3948"
   inkscape:version="0.91 r13725"
   sodipodi:docname="snowy2.svg">
  <metadata
     id="metadata3956">
    <rdf:RDF>
      <cc:Work
         rdf:about="">
        <dc:format>image/svg+xml</dc:format>
        <dc:type
           rdf:resource="http://purl.org/dc/dcmitype/StillImage" />
        <dc:title></dc:title>
      </cc:Work>
    </rdf:RDF>
  </metadata>
  <defs
     id="defs3954" />
  <sodipodi:namedview
     pagecolor="#ffffff"
     bordercolor="#666666"
     borderopacity="1"
     objecttolerance="10"
     gridtolerance="10"
     guidetolerance="10"
     inkscape:pageopacity="0"
     inkscape:pageshadow="2"
     inkscape:window-width="1048"
     inkscape:window-height="587"
     id="namedview3952"
     showgrid="false"
     inkscape:zoom="7.375"
     inkscape:cx="-0.94915254"
     inkscape:cy="21.423729"
     inkscape:window-x="0"
     inkscape:window-y="0"
     inkscape:window-maximized="0"
     inkscape:current-layer="svg3948" />
  <path
     d="m 71.325229,86.554205 -3.937623,-2.268071 c 0.119004,-0.682521 0.210006,-1.382543 0.210006,-2.107066 0,-0.724523 -0.091,-1.421044 -0.220506,-2.107066 l 3.948123,-2.275071 c 1.841057,-1.074533 2.471077,-3.440607 1.414044,-5.271164 -1.067533,-1.855058 -3.426607,-2.488578 -5.278165,-1.421045 l -3.979624,2.296072 C 62.41395,72.494265 61.213413,71.783743 59.872871,71.300728 l 0,-4.571143 c 0,-2.138567 -1.736054,-3.867621 -3.867621,-3.867621 -2.131566,0 -3.864121,1.732555 -3.864121,3.867621 l 0,4.567643 c -1.340541,0.479515 -2.548079,1.197037 -3.615613,2.107066 l -3.969124,-2.296072 c -1.855058,-1.067533 -4.221132,-0.437513 -5.285165,1.417545 -1.067533,1.841057 -0.423513,4.210631 1.421045,5.278164 l 3.927122,2.268071 c -0.129504,0.689522 -0.210006,1.386044 -0.210006,2.110566 0,0.724523 0.0805,1.421045 0.210006,2.103566 l -3.927122,2.268071 c -1.851558,1.067533 -2.488578,3.444107 -1.421045,5.292165 1.067534,1.848058 3.430107,2.474578 5.278165,1.407044 l 3.972624,-2.282071 c 1.067534,0.903028 2.275071,1.61355 3.619113,2.093065 l 0,4.581644 c 0,2.13157 1.732555,3.857118 3.864121,3.857118 2.131567,0 3.867621,-1.722048 3.867621,-3.857118 l 0,-4.581644 c 1.340542,-0.479515 2.55508,-1.190037 3.615613,-2.107066 l 3.972624,2.296072 c 1.851558,1.067534 4.210632,0.437514 5.278165,-1.407044 1.067533,-1.844557 0.437514,-4.210631 -1.414044,-5.292165 z M 56.00175,86.050189 c -2.131567,0 -3.867621,-1.736054 -3.867621,-3.867621 0,-2.131566 1.736054,-3.86062 3.867621,-3.86062 2.131567,0 3.864121,1.729054 3.864121,3.86062 0,2.131567 -1.732554,3.867621 -3.864121,3.867621 z M 87.502734,24.497266 c -1.162036,0 -2.310072,0.0805 -3.454607,0.245007 C 77.513422,15.837995 67.1986,10.496828 56.00175,10.496828 c -11.19685,0 -21.508172,5.341167 -28.046376,14.245445 C 26.810838,24.577768 25.662802,24.497266 24.500766,24.497266 10.993844,24.497266 0,35.491109 0,48.998031 c 0,13.506922 10.993844,24.500766 24.500766,24.500766 2.58308,0 5.103159,-0.483015 7.532235,-1.27754 0.231007,-1.113035 0.598519,-2.198069 1.176037,-3.2026 0.861027,-1.498047 2.093065,-2.695084 3.500109,-3.608613 -0.724522,-0.707022 -1.519047,-1.337042 -2.159567,-2.117566 -2.845589,2.005563 -6.303697,3.2096 -10.048814,3.2096 -9.667302,0 -17.5005472,-7.833245 -17.5005472,-17.500547 0,-9.667302 7.8332452,-17.500547 17.5005472,-17.500547 2.366074,0 4.606144,0.483016 6.657208,1.330042 4.644645,-9.058283 13.968936,-15.330479 24.843776,-15.330479 10.87484,0 20.199131,6.272196 24.836776,15.330479 2.054564,-0.847026 4.301635,-1.330042 6.664208,-1.330042 9.667303,0 17.500546,7.833245 17.500546,17.500547 0,9.667302 -7.833243,17.500547 -17.500546,17.500547 -3.745117,0 -7.199725,-1.204037 -10.048814,-3.2096 -0.64402,0.784024 -1.445545,1.414044 -2.166567,2.117566 1.414044,0.920529 2.653083,2.121066 3.510609,3.622613 0.591519,1.015032 0.95203,2.096566 1.183037,3.1886 2.422076,0.794525 4.935155,1.27754 7.518235,1.27754 C 101.00616,73.498797 112,62.504953 112,48.998031 112,35.491109 101.00616,24.497266 87.499234,24.497266 Z"
     id="path3950"
     inkscape:connector-curvature="0" />
</svg>
