<?xml version="1.0" encoding="UTF-8" standalone="no"?>
<!-- Generated by IcoMoon.io -->

<svg
   xmlns:dc="http://purl.org/dc/elements/1.1/"
   xmlns:cc="http://creativecommons.org/ns#"
   xmlns:rdf="http://www.w3.org/1999/02/22-rdf-syntax-ns#"
   xmlns:svg="http://www.w3.org/2000/svg"
   xmlns="http://www.w3.org/2000/svg"
   xmlns:sodipodi="http://sodipodi.sourceforge.net/DTD/sodipodi-0.dtd"
   xmlns:inkscape="http://www.inkscape.org/namespaces/inkscape"
   version="1.1"
   width="112"
   height="112"
   viewBox="0 0 112 112"
   id="svg4080"
   inkscape:version="0.91 r13725"
   sodipodi:docname="sun2.svg">
  <metadata
     id="metadata4088">
    <rdf:RDF>
      <cc:Work
         rdf:about="">
        <dc:format>image/svg+xml</dc:format>
        <dc:type
           rdf:resource="http://purl.org/dc/dcmitype/StillImage" />
        <dc:title></dc:title>
      </cc:Work>
    </rdf:RDF>
  </metadata>
  <defs
     id="defs4086" />
  <sodipodi:namedview
     pagecolor="#ffffff"
     bordercolor="#666666"
     borderopacity="1"
     objecttolerance="10"
     gridtolerance="10"
     guidetolerance="10"
     inkscape:pageopacity="0"
     inkscape:pageshadow="2"
     inkscape:window-width="976"
     inkscape:window-height="658"
     id="namedview4084"
     showgrid="false"
     inkscape:zoom="7.375"
     inkscape:cx="-0.94915254"
     inkscape:cy="16"
     inkscape:window-x="0"
     inkscape:window-y="0"
     inkscape:window-maximized="0"
     inkscape:current-layer="svg4080" />
  <path
     d="m 60.30769,17.230769 c 2.377846,0 4.307692,-1.929846 4.307692,-4.307692 l 0,-8.615385 C 64.615382,1.929846 62.685536,0 60.30769,0 57.929844,0 55.999998,1.929846 55.999998,4.307692 l 0,8.615385 c 0,2.377846 1.929846,4.307692 4.307692,4.307692 z m 0,77.538462 c -2.377846,0 -4.307692,1.929846 -4.307692,4.307692 l 0,8.615387 c 0,2.37784 1.929846,4.30769 4.307692,4.30769 2.377846,0 4.307692,-1.92985 4.307692,-4.30769 l 0,-8.615387 c 0,-2.377846 -1.929846,-4.307692 -4.307692,-4.307692 z M 26.802459,83.414154 20.711382,89.505231 c -1.684307,1.684307 -1.684307,4.406769 0,6.091077 1.684308,1.684307 4.40677,1.684307 6.091077,0 l 6.091077,-6.091077 c 1.684308,-1.688616 1.684308,-4.406769 0,-6.091077 -1.684308,-1.684308 -4.406769,-1.688616 -6.091077,0 z M 21.538459,56 c 0,-2.377846 -1.929846,-4.307692 -4.307692,-4.307692 l -8.6153847,0 C 6.2375362,51.692308 4.30769,53.622154 4.30769,56 c 0,2.377846 1.9298462,4.307692 4.3076923,4.307692 l 8.6153847,0 c 2.377846,0 4.307692,-1.929846 4.307692,-4.307692 z m 5.259693,-27.418462 c 1.684307,1.684308 4.411076,1.684308 6.091076,0 1.68,-1.684307 1.684308,-4.406769 0,-6.091076 l -6.091076,-6.091077 c -1.684308,-1.684308 -4.40677,-1.684308 -6.091077,0 -1.684308,1.684307 -1.684308,4.406769 0,6.091077 l 6.091077,6.091076 z m 50.740307,-2.735384 c -3.011077,0 -5.871384,0.581538 -8.615384,1.4 -2.744,-0.818462 -5.604308,-1.4 -8.615385,-1.4 -16.623385,0 -30.153846,13.530461 -30.153846,30.153846 0,16.623385 13.530461,30.153846 30.153846,30.153846 3.011077,0 5.871385,-0.581538 8.615385,-1.404307 2.744,0.818461 5.604307,1.404307 8.615384,1.404307 16.623385,0 30.153851,-13.530461 30.153851,-30.153846 0,-16.623385 -13.530466,-30.153846 -30.153851,-30.153846 z M 56.060305,77.112 C 46.19569,75.139077 38.769228,66.441846 38.769228,56 c 0,-10.441846 7.426462,-19.139077 17.291077,-21.112 -5.354461,5.444923 -8.675692,12.888615 -8.675692,21.112 0,8.223385 3.321231,15.667077 8.675692,21.112 z"
     id="path4082"
     inkscape:connector-curvature="0" />
</svg>
