<?xml version="1.0" encoding="UTF-8" standalone="no"?>
<!-- Generated by IcoMoon.io -->

<svg
   xmlns:dc="http://purl.org/dc/elements/1.1/"
   xmlns:cc="http://creativecommons.org/ns#"
   xmlns:rdf="http://www.w3.org/1999/02/22-rdf-syntax-ns#"
   xmlns:svg="http://www.w3.org/2000/svg"
   xmlns="http://www.w3.org/2000/svg"
   xmlns:sodipodi="http://sodipodi.sourceforge.net/DTD/sodipodi-0.dtd"
   xmlns:inkscape="http://www.inkscape.org/namespaces/inkscape"
   version="1.1"
   width="112"
   height="112"
   viewBox="0 0 112 112"
   id="svg4124"
   inkscape:version="0.91 r13725"
   sodipodi:docname="sunrise.svg">
  <metadata
     id="metadata4132">
    <rdf:RDF>
      <cc:Work
         rdf:about="">
        <dc:format>image/svg+xml</dc:format>
        <dc:type
           rdf:resource="http://purl.org/dc/dcmitype/StillImage" />
        <dc:title></dc:title>
      </cc:Work>
    </rdf:RDF>
  </metadata>
  <defs
     id="defs4130" />
  <sodipodi:namedview
     pagecolor="#ffffff"
     bordercolor="#666666"
     borderopacity="1"
     objecttolerance="10"
     gridtolerance="10"
     guidetolerance="10"
     inkscape:pageopacity="0"
     inkscape:pageshadow="2"
     inkscape:window-width="1159"
     inkscape:window-height="637"
     id="namedview4128"
     showgrid="false"
     inkscape:zoom="7.375"
     inkscape:cx="-0.94915254"
     inkscape:cy="16"
     inkscape:window-x="0"
     inkscape:window-y="0"
     inkscape:window-maximized="0"
     inkscape:current-layer="svg4124" />
  <path
     d="m 28.5656,67.2 c 2.604,-12.7848 13.888,-22.4 27.44,-22.4 13.552,0 24.836,9.6152 27.4344,22.4 l 11.2,0 C 91.896,48.2552 75.712,33.6 56.0112,33.6 36.316,33.6 20.1208,48.2552 17.3824,67.2 l 11.1944,0 z m 27.44,-44.8 c 3.0912,0 5.6,-2.5088 5.6,-5.6 l 0,-11.2 c 0,-3.0912 -2.5088,-5.6 -5.6,-5.6 -3.0912,0 -5.6,2.5088 -5.6,5.6 l 0,11.2 c 0,3.0912 2.5088,5.6 5.6,5.6 z m 51.4696,-1.0808 c -2.1896,-2.1896 -5.7288,-2.1896 -7.9184,0 l -7.9184,7.9184 c -2.1896,2.1896 -2.1896,5.7288 0,7.9184 2.1896,2.1896 5.7288,2.1896 7.9184,0 l 7.9184,-7.9184 c 2.1896,-2.1896 2.1896,-5.7288 0,-7.9184 z m -87.1136,7.9184 -7.9184,-7.9184 c -2.1896,-2.1896 -5.7288,-2.1896 -7.9184,0 -2.1896,2.1896 -2.1896,5.7288 0,7.9184 l 7.9184,7.9184 c 2.1896,2.1896 5.7344,2.1896 7.9184,0 2.184,-2.1896 2.1896,-5.7288 0,-7.9184 z m 69.244,49.1624 -67.2,0 c -3.0912,0 -5.6,2.5088 -5.6,5.6 0,3.0912 2.5088,5.6 5.6,5.6 l 67.2,0 c 3.0912,0 5.6,-2.5088 5.6,-5.6 0,-3.0912 -2.5088,-5.6 -5.6,-5.6 z m -11.2,22.4 -44.8,0 c -3.0912,0 -5.6,2.5088 -5.6,5.6 0,3.0912 2.5088,5.6 5.6,5.6 l 44.8,0 c 3.0912,0 5.6,-2.5088 5.6,-5.6 0,-3.0912 -2.5088,-5.6 -5.6,-5.6 z"
     id="path4126"
     inkscape:connector-curvature="0" />
</svg>
