<?xml version="1.0" encoding="UTF-8" standalone="no"?>
<!-- Generated by IcoMoon.io -->

<svg
   xmlns:dc="http://purl.org/dc/elements/1.1/"
   xmlns:cc="http://creativecommons.org/ns#"
   xmlns:rdf="http://www.w3.org/1999/02/22-rdf-syntax-ns#"
   xmlns:svg="http://www.w3.org/2000/svg"
   xmlns="http://www.w3.org/2000/svg"
   xmlns:sodipodi="http://sodipodi.sourceforge.net/DTD/sodipodi-0.dtd"
   xmlns:inkscape="http://www.inkscape.org/namespaces/inkscape"
   version="1.1"
   width="112"
   height="112"
   viewBox="0 0 112 112"
   id="svg4256"
   inkscape:version="0.91 r13725"
   sodipodi:docname="weather3.svg">
  <metadata
     id="metadata4264">
    <rdf:RDF>
      <cc:Work
         rdf:about="">
        <dc:format>image/svg+xml</dc:format>
        <dc:type
           rdf:resource="http://purl.org/dc/dcmitype/StillImage" />
        <dc:title></dc:title>
      </cc:Work>
    </rdf:RDF>
  </metadata>
  <defs
     id="defs4262" />
  <sodipodi:namedview
     pagecolor="#ffffff"
     bordercolor="#666666"
     borderopacity="1"
     objecttolerance="10"
     gridtolerance="10"
     guidetolerance="10"
     inkscape:pageopacity="0"
     inkscape:pageshadow="2"
     inkscape:window-width="1087"
     inkscape:window-height="618"
     id="namedview4260"
     showgrid="false"
     inkscape:zoom="7.375"
     inkscape:cx="-0.94915254"
     inkscape:cy="16"
     inkscape:window-x="0"
     inkscape:window-y="0"
     inkscape:window-maximized="0"
     inkscape:current-layer="svg4256" />
  <path
     d="M 7.35,56 C 7.1225,54.8695 7,53.697 7,52.5 7,42.833 14.833,35 24.5,35 c 2.366,0 4.606,0.483 6.657,1.33 C 35.8015,27.272 45.1255,21 56,21 66.8745,21 76.1985,27.272 80.836,36.33 82.8905,35.483 85.1375,35 87.5,35 c 9.667,0 17.5,7.833 17.5,17.5 0,1.197 -0.1225,2.3695 -0.357,3.5 l 7,0 C 111.8145,54.8485 112,53.697 112,52.5 112,38.9935 101.0065,28 87.5,28 86.338,28 85.19,28.0805 84.0455,28.245 77.511,19.341 67.1965,14 56,14 44.8035,14 34.4925,19.341 27.9545,28.245 26.81,28.0805 25.662,28 24.5,28 10.9935,28 0,38.9935 0,52.5 0,53.697 0.1855,54.8485 0.357,56 l 6.9965,0 z M 108.5,63 3.5,63 C 1.568,63 0,64.568 0,66.5 0,68.432 1.568,70 3.5,70 l 105,0 c 1.932,0 3.5,-1.568 3.5,-3.5 0,-1.932 -1.568,-3.5 -3.5,-3.5 z m 0,14 -105,0 C 1.568,77 0,78.568 0,80.5 0,82.432 1.568,84 3.5,84 l 105,0 c 1.932,0 3.5,-1.568 3.5,-3.5 0,-1.932 -1.568,-3.5 -3.5,-3.5 z m 0,14 -105,0 C 1.568,91 0,92.568 0,94.5 0,96.432 1.568,98 3.5,98 l 105,0 c 1.932,0 3.5,-1.568 3.5,-3.5 0,-1.932 -1.568,-3.5 -3.5,-3.5 z"
     id="path4258"
     inkscape:connector-curvature="0" />
</svg>
