<?xml version="1.0" encoding="UTF-8" standalone="no"?>
<!-- Generated by IcoMoon.io -->

<svg
   xmlns:dc="http://purl.org/dc/elements/1.1/"
   xmlns:cc="http://creativecommons.org/ns#"
   xmlns:rdf="http://www.w3.org/1999/02/22-rdf-syntax-ns#"
   xmlns:svg="http://www.w3.org/2000/svg"
   xmlns="http://www.w3.org/2000/svg"
   xmlns:sodipodi="http://sodipodi.sourceforge.net/DTD/sodipodi-0.dtd"
   xmlns:inkscape="http://www.inkscape.org/namespaces/inkscape"
   version="1.1"
   width="112"
   height="112"
   viewBox="0 0 112 112"
   id="svg4212"
   inkscape:version="0.91 r13725"
   sodipodi:docname="weather2.svg">
  <metadata
     id="metadata4220">
    <rdf:RDF>
      <cc:Work
         rdf:about="">
        <dc:format>image/svg+xml</dc:format>
        <dc:type
           rdf:resource="http://purl.org/dc/dcmitype/StillImage" />
        <dc:title></dc:title>
      </cc:Work>
    </rdf:RDF>
  </metadata>
  <defs
     id="defs4218" />
  <sodipodi:namedview
     pagecolor="#ffffff"
     bordercolor="#666666"
     borderopacity="1"
     objecttolerance="10"
     gridtolerance="10"
     guidetolerance="10"
     inkscape:pageopacity="0"
     inkscape:pageshadow="2"
     inkscape:window-width="1020"
     inkscape:window-height="650"
     id="namedview4216"
     showgrid="false"
     inkscape:zoom="7.375"
     inkscape:cx="-0.94915254"
     inkscape:cy="16"
     inkscape:window-x="0"
     inkscape:window-y="0"
     inkscape:window-maximized="0"
     inkscape:current-layer="svg4212" />
  <path
     d="m 4.3076923,72.964384 103.3846177,0 c 2.37784,0 4.30769,-1.929846 4.30769,-4.307692 0,-2.377846 -1.92985,-4.307692 -4.30769,-4.307692 l -103.3846177,0 C 1.9298462,64.349 0,66.278846 0,68.656692 c 0,2.377846 1.9298462,4.307692 4.3076923,4.307692 z m 103.3846177,8.615385 -103.3846177,0 C 1.9298462,81.579769 0,83.509615 0,85.887462 c 0,2.377846 1.9298462,4.307692 4.3076923,4.307692 l 103.3846177,0 c 2.37784,0 4.30769,-1.929846 4.30769,-4.307692 0,-2.377847 -1.92985,-4.307693 -4.30769,-4.307693 z m 0,17.230769 -103.3846177,0 C 1.9298462,98.810538 0,100.74038 0,103.11823 c 0,2.37784 1.9298462,4.30769 4.3076923,4.30769 l 103.3846177,0 c 2.37784,0 4.30769,-1.92985 4.30769,-4.30769 0,-2.37785 -1.92985,-4.307692 -4.30769,-4.307692 z M 42.28,55.733615 c -0.09046,-0.09046 -0.202462,-0.146461 -0.292923,-0.236923 -10.08,-10.08 -10.08,-26.475077 0,-36.559384 0.689231,-0.684923 1.417231,-1.335385 2.192615,-1.938462 -0.607384,9.679385 2.890462,19.216615 9.989539,26.311385 7.099077,7.107692 16.636307,10.588307 26.315692,9.98523 -0.719385,0.913231 -1.580923,1.649847 -2.395077,2.438154 l 11.178462,0 c 1.356923,-2.166769 2.489846,-4.510154 3.385846,-7.01723 0.542769,-1.576616 0.146461,-3.321231 -1.033846,-4.488616 -1.154462,-1.171692 -2.903385,-1.576615 -4.475693,-1.020923 -9.524307,3.364308 -19.828307,1.072615 -26.888615,-5.992 -7.068923,-7.068923 -9.369231,-17.372923 -5.992,-26.897231 0.56,-1.5636921 0.155077,-3.3040001 -1.020923,-4.4800001 -1.167385,-1.171692 -2.912,-1.572307 -4.475692,-1.016615 -4.988308,1.761846 -9.321847,4.471385 -12.88,8.0209231 C 24.252308,24.477 22.736,42.397 31.239385,55.729308 l 11.032,0 z"
     id="path4214"
     inkscape:connector-curvature="0" />
</svg>
