<?xml version="1.0" encoding="UTF-8" standalone="no"?>
<!-- Generated by IcoMoon.io -->

<svg
   xmlns:dc="http://purl.org/dc/elements/1.1/"
   xmlns:cc="http://creativecommons.org/ns#"
   xmlns:rdf="http://www.w3.org/1999/02/22-rdf-syntax-ns#"
   xmlns:svg="http://www.w3.org/2000/svg"
   xmlns="http://www.w3.org/2000/svg"
   xmlns:sodipodi="http://sodipodi.sourceforge.net/DTD/sodipodi-0.dtd"
   xmlns:inkscape="http://www.inkscape.org/namespaces/inkscape"
   version="1.1"
   width="112"
   height="112"
   viewBox="0 0 112 112"
   id="svg4168"
   inkscape:version="0.91 r13725"
   sodipodi:docname="weather.svg">
  <metadata
     id="metadata4176">
    <rdf:RDF>
      <cc:Work
         rdf:about="">
        <dc:format>image/svg+xml</dc:format>
        <dc:type
           rdf:resource="http://purl.org/dc/dcmitype/StillImage" />
        <dc:title></dc:title>
      </cc:Work>
    </rdf:RDF>
  </metadata>
  <defs
     id="defs4174" />
  <sodipodi:namedview
     pagecolor="#ffffff"
     bordercolor="#666666"
     borderopacity="1"
     objecttolerance="10"
     gridtolerance="10"
     guidetolerance="10"
     inkscape:pageopacity="0"
     inkscape:pageshadow="2"
     inkscape:window-width="1007"
     inkscape:window-height="605"
     id="namedview4172"
     showgrid="false"
     inkscape:zoom="7.375"
     inkscape:cx="-0.94915254"
     inkscape:cy="16"
     inkscape:window-x="0"
     inkscape:window-y="0"
     inkscape:window-maximized="0"
     inkscape:current-layer="svg4168" />
  <path
     d="m 56,17.230769 c 2.377846,0 4.307692,-1.929846 4.307692,-4.307692 l 0,-8.615385 C 60.307692,1.929846 58.377846,0 56,0 53.622154,0 51.692308,1.929846 51.692308,4.307692 l 0,8.615385 c 0,2.377846 1.929846,4.307692 4.307692,4.307692 z M 89.500923,28.581538 95.592,22.490462 c 1.68431,-1.684308 1.68431,-4.40677 0,-6.091077 -1.684308,-1.684308 -4.406769,-1.684308 -6.091077,0 l -6.091077,6.091077 c -1.684308,1.684307 -1.684308,4.406769 0,6.091076 1.684308,1.684308 4.406769,1.684308 6.091077,0 z m -85.1932307,31.726154 8.6153847,0 c 2.377846,0 4.307692,-1.929846 4.307692,-4.307692 0,-2.377846 -1.929846,-4.307692 -4.307692,-4.307692 l -8.6153847,0 C 1.9298462,51.692308 0,53.622154 0,56 c 0,2.377846 1.9298462,4.307692 4.3076923,4.307692 z M 94.769231,56 c 0,2.377846 1.929846,4.307692 4.307689,4.307692 l 8.61539,0 C 110.07015,60.307692 112,58.377846 112,56 c 0,-2.377846 -1.92985,-4.307692 -4.30769,-4.307692 l -8.61539,0 c -2.377843,0 -4.307689,1.929846 -4.307689,4.307692 z M 22.490462,28.581538 c 1.684307,1.684308 4.411076,1.684308 6.091076,0 1.68,-1.684307 1.684308,-4.406769 0,-6.091076 l -6.091076,-6.091077 c -1.684308,-1.684308 -4.40677,-1.684308 -6.091077,0 -1.684308,1.684307 -1.684308,4.406769 0,6.091077 l 6.091077,6.091076 z m 3.795076,31.726154 8.615385,0 C 34.616615,58.916308 34.461538,57.473231 34.461538,56 34.461538,44.102154 44.102154,34.461538 56,34.461538 c 11.897846,0 21.538462,9.640616 21.538462,21.538462 0,1.473231 -0.15077,2.916308 -0.439385,4.307692 l 8.615385,0 C 85.925538,58.890462 86.153846,57.473231 86.153846,56 86.153846,39.376615 72.623385,25.846154 56,25.846154 39.376615,25.846154 25.846154,39.376615 25.846154,56 c 0,1.473231 0.236923,2.890462 0.439384,4.307692 z m 81.406772,8.615385 -103.3846177,0 C 1.9298462,68.923077 0,70.852923 0,73.230769 c 0,2.377846 1.9298462,4.307692 4.3076923,4.307692 l 103.3846177,0 c 2.37784,0 4.30769,-1.929846 4.30769,-4.307692 0,-2.377846 -1.92985,-4.307692 -4.30769,-4.307692 z m 0,17.230769 -103.3846177,0 C 1.9298462,86.153846 0,88.083692 0,90.461539 c 0,2.377846 1.9298462,4.307692 4.3076923,4.307692 l 103.3846177,0 c 2.37784,0 4.30769,-1.929846 4.30769,-4.307692 0,-2.377847 -1.92985,-4.307693 -4.30769,-4.307693 z m 0,17.230774 -103.3846177,0 C 1.9298462,103.38462 0,105.31446 0,107.69231 0,110.07015 1.9298462,112 4.3076923,112 l 103.3846177,0 c 2.37784,0 4.30769,-1.92985 4.30769,-4.30769 0,-2.37785 -1.92985,-4.30769 -4.30769,-4.30769 z"
     id="path4170"
     inkscape:connector-curvature="0" />
</svg>
