<?xml version="1.0" encoding="UTF-8" standalone="no"?>
<!-- Generated by IcoMoon.io -->

<svg
   xmlns:dc="http://purl.org/dc/elements/1.1/"
   xmlns:cc="http://creativecommons.org/ns#"
   xmlns:rdf="http://www.w3.org/1999/02/22-rdf-syntax-ns#"
   xmlns:svg="http://www.w3.org/2000/svg"
   xmlns="http://www.w3.org/2000/svg"
   xmlns:sodipodi="http://sodipodi.sourceforge.net/DTD/sodipodi-0.dtd"
   xmlns:inkscape="http://www.inkscape.org/namespaces/inkscape"
   version="1.1"
   width="112"
   height="112"
   viewBox="0 0 112 112"
   id="svg4300"
   inkscape:version="0.91 r13725"
   sodipodi:docname="weather4.svg">
  <metadata
     id="metadata4308">
    <rdf:RDF>
      <cc:Work
         rdf:about="">
        <dc:format>image/svg+xml</dc:format>
        <dc:type
           rdf:resource="http://purl.org/dc/dcmitype/StillImage" />
        <dc:title></dc:title>
      </cc:Work>
    </rdf:RDF>
  </metadata>
  <defs
     id="defs4306" />
  <sodipodi:namedview
     pagecolor="#ffffff"
     bordercolor="#666666"
     borderopacity="1"
     objecttolerance="10"
     gridtolerance="10"
     guidetolerance="10"
     inkscape:pageopacity="0"
     inkscape:pageshadow="2"
     inkscape:window-width="1033"
     inkscape:window-height="576"
     id="namedview4304"
     showgrid="false"
     inkscape:zoom="7.375"
     inkscape:cx="-0.94915254"
     inkscape:cy="16"
     inkscape:window-x="0"
     inkscape:window-y="0"
     inkscape:window-maximized="0"
     inkscape:current-layer="svg4300" />
  <path
     d="m 87.5,14 c -1.162,0 -2.31,0.0805 -3.4545,0.245 C 77.511,5.341 67.1965,0 56,0 44.8035,0 34.4925,5.341 27.9545,14.245 26.81,14.0805 25.662,14 24.5,14 10.9935,14 0,24.9935 0,38.5 0,52.0065 10.9935,63 24.5,63 27.496,63 30.4255,62.454 33.187,61.397 39.522,66.92 47.579,70 56,70 64.4315,70 72.478,66.92 78.813,61.397 81.5745,62.454 84.504,63 87.5,63 101.0065,63 112,52.0065 112,38.5 112,24.9935 101.0065,14 87.5,14 Z m 0,42 c -2.1245,0 -4.2035,-0.3815 -6.181,-1.1375 l -3.9375,-1.512 -3.171,2.772 C 69.125,60.5605 62.657,63.0035 56,63.0035 c -6.657,0 -13.125,-2.443 -18.2105,-6.881 l -3.171,-2.772 -3.9375,1.512 c -1.9705,0.756 -4.0565,1.141 -6.181,1.141 -9.653,0 -17.5,-7.854 -17.5,-17.5 0,-9.646 7.847,-17.5 17.5,-17.5 0.8295,0 1.6415,0.0595 2.4605,0.175 l 4.1475,0.602 2.485,-3.381 C 38.913,11.158 47.0785,7.007 56,7.007 c 8.9285,0 17.0905,4.1475 22.4035,11.389 l 2.4885,3.3845 4.1545,-0.602 c 0.812,-0.1155 1.624,-0.175 2.4535,-0.175 9.653,0 17.5,7.854 17.5,17.5 0,9.646 -7.847,17.5 -17.5,17.5 z M 21,70 c -3.871,0 -7,3.1325 -7,7 0,3.8675 3.129,7 7,7 3.871,0 7,-3.1325 7,-7 0,-3.8675 -3.129,-7 -7,-7 z m 35,7 c -3.8675,0 -7,3.1325 -7,7 0,3.8675 3.1325,7 7,7 3.8675,0 7,-3.1325 7,-7 0,-3.8675 -3.1325,-7 -7,-7 z m 35,-7 c -3.8675,0 -7,3.1325 -7,7 0,3.8675 3.1325,7 7,7 3.8675,0 7,-3.1325 7,-7 0,-3.8675 -3.1325,-7 -7,-7 z M 77,98 c -3.8675,0 -7,3.1325 -7,7 0,3.8675 3.1325,7 7,7 3.8675,0 7,-3.1325 7,-7 0,-3.8675 -3.1325,-7 -7,-7 z m -42,0 c -3.8675,0 -7,3.1325 -7,7 0,3.8675 3.1325,7 7,7 3.8675,0 7,-3.1325 7,-7 0,-3.8675 -3.1325,-7 -7,-7 z"
     id="path4302"
     inkscape:connector-curvature="0" />
</svg>
