<?xml version="1.0" encoding="UTF-8" standalone="no"?>
<!-- Generated by IcoMoon.io -->

<svg
   xmlns:dc="http://purl.org/dc/elements/1.1/"
   xmlns:cc="http://creativecommons.org/ns#"
   xmlns:rdf="http://www.w3.org/1999/02/22-rdf-syntax-ns#"
   xmlns:svg="http://www.w3.org/2000/svg"
   xmlns="http://www.w3.org/2000/svg"
   xmlns:sodipodi="http://sodipodi.sourceforge.net/DTD/sodipodi-0.dtd"
   xmlns:inkscape="http://www.inkscape.org/namespaces/inkscape"
   version="1.1"
   width="112"
   height="112"
   viewBox="0 0 112 112"
   id="svg4482"
   inkscape:version="0.91 r13725"
   sodipodi:docname="windy2.svg">
  <metadata
     id="metadata4490">
    <rdf:RDF>
      <cc:Work
         rdf:about="">
        <dc:format>image/svg+xml</dc:format>
        <dc:type
           rdf:resource="http://purl.org/dc/dcmitype/StillImage" />
        <dc:title></dc:title>
      </cc:Work>
    </rdf:RDF>
  </metadata>
  <defs
     id="defs4488" />
  <sodipodi:namedview
     pagecolor="#ffffff"
     bordercolor="#666666"
     borderopacity="1"
     objecttolerance="10"
     gridtolerance="10"
     guidetolerance="10"
     inkscape:pageopacity="0"
     inkscape:pageshadow="2"
     inkscape:window-width="1146"
     inkscape:window-height="578"
     id="namedview4486"
     showgrid="false"
     inkscape:zoom="7.375"
     inkscape:cx="-0.94915254"
     inkscape:cy="16"
     inkscape:window-x="0"
     inkscape:window-y="0"
     inkscape:window-maximized="0"
     inkscape:current-layer="svg4482" />
  <path
     d="m 91.2275,36.33175 c -5.2465,-5.369 -12.495,-8.4805 -20.0655,-8.4805 -7.56,0 -14.805,3.1115 -20.0515,8.4805 -11.5535,0.539 -20.7865,10.1045 -20.7865,21.784 0,12.0225 9.779,21.8015 21.805,21.8015 1.2775,0 2.5375,-0.1085 3.7765,-0.329 4.536,2.961 9.8245,4.5605 15.253,4.5605 5.4355,0 10.731,-1.5995 15.2635,-4.5605 1.2495,0.217 2.506,0.329 3.7835,0.329 12.019,0 21.7945,-9.779 21.7945,-21.8015 0,-11.6795 -9.2295,-21.245 -20.7725,-21.784 z m -1.022,36.5855 c -1.82,0 -3.5805,-0.329 -5.25,-0.966 -3.829,3.3355 -8.694,5.201 -13.7935,5.201 -5.0855,0 -9.954,-1.8655 -13.7795,-5.201 -1.6695,0.637 -3.444,0.966 -5.25,0.966 -8.162,0 -14.805,-6.643 -14.805,-14.8015 0,-8.162 6.643,-14.805 14.805,-14.805 0.6965,0 1.393,0.049 2.0825,0.1505 3.9585,-5.376 10.1815,-8.61 16.947,-8.61 6.7655,0 13.0025,3.2305 16.954,8.61 0.6825,-0.1015 1.3825,-0.1505 2.093,-0.1505 8.162,0 14.7945,6.643 14.7945,14.805 0,8.1585 -6.6325,14.8015 -14.7945,14.8015 z m -58.7055,4.0845 -28,0 c -1.932,0 -3.5,1.568 -3.5,3.5 0,1.932 1.568,3.5 3.5,3.5 l 28,0 c 1.932,0 3.5,-1.568 3.5,-3.5 0,-1.932 -1.568,-3.5 -3.5,-3.5 z m -28,-7 14,0 c 1.932,0 3.5,-1.568 3.5,-3.5 0,-1.932 -1.568,-3.5 -3.5,-3.5 l -14,0 c -1.932,0 -3.5,1.568 -3.5,3.5 0,1.932 1.568,3.5 3.5,3.5 z m 7,-14 14,0 c 1.932,0 3.5,-1.568 3.5,-3.5 0,-1.932 -1.568,-3.5 -3.5,-3.5 l -14,0 c -1.932,0 -3.5,1.568 -3.5,3.5 0,1.932 1.568,3.5 3.5,3.5 z"
     id="path4484"
     inkscape:connector-curvature="0" />
</svg>
