<?xml version="1.0" encoding="UTF-8" standalone="no"?>
<!-- Generated by IcoMoon.io -->

<svg
   xmlns:dc="http://purl.org/dc/elements/1.1/"
   xmlns:cc="http://creativecommons.org/ns#"
   xmlns:rdf="http://www.w3.org/1999/02/22-rdf-syntax-ns#"
   xmlns:svg="http://www.w3.org/2000/svg"
   xmlns="http://www.w3.org/2000/svg"
   xmlns:sodipodi="http://sodipodi.sourceforge.net/DTD/sodipodi-0.dtd"
   xmlns:inkscape="http://www.inkscape.org/namespaces/inkscape"
   version="1.1"
   width="112"
   height="112"
   viewBox="0 0 112 112"
   id="svg4526"
   inkscape:version="0.91 r13725"
   sodipodi:docname="windy3.svg">
  <metadata
     id="metadata4534">
    <rdf:RDF>
      <cc:Work
         rdf:about="">
        <dc:format>image/svg+xml</dc:format>
        <dc:type
           rdf:resource="http://purl.org/dc/dcmitype/StillImage" />
        <dc:title></dc:title>
      </cc:Work>
    </rdf:RDF>
  </metadata>
  <defs
     id="defs4532" />
  <sodipodi:namedview
     pagecolor="#ffffff"
     bordercolor="#666666"
     borderopacity="1"
     objecttolerance="10"
     gridtolerance="10"
     guidetolerance="10"
     inkscape:pageopacity="0"
     inkscape:pageshadow="2"
     inkscape:window-width="970"
     inkscape:window-height="652"
     id="namedview4530"
     showgrid="false"
     inkscape:zoom="7.375"
     inkscape:cx="-0.94915254"
     inkscape:cy="16"
     inkscape:window-x="0"
     inkscape:window-y="0"
     inkscape:window-maximized="0"
     inkscape:current-layer="svg4526" />
  <path
     d="M 91.2275,15.4875 C 85.981,10.115 78.7325,7 71.162,7 63.602,7 56.357,10.1115 51.1105,15.4875 39.557,16.0195 30.324,25.585 30.324,37.261 c 0,12.026 9.779,21.812 21.805,21.812 1.2775,0 2.5375,-0.1085 3.7765,-0.329 4.536,2.9575 9.8245,4.557 15.253,4.557 5.4355,0 10.731,-1.5995 15.2635,-4.557 1.2495,0.217 2.506,0.329 3.7835,0.329 C 102.2245,59.073 112,49.287 112,37.261 112,25.585 102.7705,16.016 91.2275,15.4875 Z m -1.022,36.5855 c -1.82,0 -3.5805,-0.329 -5.25,-0.9765 -3.829,3.3355 -8.694,5.2045 -13.7935,5.2045 -5.0855,0 -9.954,-1.869 -13.7795,-5.2045 -1.6695,0.6475 -3.444,0.9765 -5.25,0.9765 -8.162,0 -14.805,-6.643 -14.805,-14.812 0,-8.1585 6.643,-14.8015 14.805,-14.8015 0.6965,0 1.393,0.056 2.0825,0.1505 C 58.1735,17.2305 64.3965,14 71.162,14 c 6.7655,0 13.0025,3.2305 16.954,8.61 0.6825,-0.0945 1.3825,-0.1505 2.093,-0.1505 8.162,0 14.7945,6.643 14.7945,14.8015 0,8.1655 -6.6325,14.812 -14.7945,14.812 z M 31.5,56.1505 l -28,0 c -1.932,0 -3.5,1.5645 -3.5,3.5 0,1.9355 1.568,3.5 3.5,3.5 l 28,0 c 1.932,0 3.5,-1.5645 3.5,-3.5 0,-1.9355 -1.568,-3.5 -3.5,-3.5 z m -28,-7 14,0 c 1.932,0 3.5,-1.5645 3.5,-3.5 0,-1.9355 -1.568,-3.5 -3.5,-3.5 l -14,0 c -1.932,0 -3.5,1.5645 -3.5,3.5 0,1.9355 1.568,3.5 3.5,3.5 z m 7,-14 14,0 c 1.932,0 3.5,-1.5645 3.5,-3.5 0,-1.9355 -1.568,-3.5 -3.5,-3.5 l -14,0 c -1.932,0 -3.5,1.5645 -3.5,3.5 0,1.9355 1.568,3.5 3.5,3.5 z M 49,84 c 0,3.8675 3.1325,7 7,7 3.8675,0 7,-3.1325 7,-7 0,-3.8675 -7,-14 -7,-14 0,0 -7,10.1325 -7,14 z m 28,14 c 0,3.8675 3.1325,7 7,7 3.8675,0 7,-3.1325 7,-7 0,-3.8675 -7,-14 -7,-14 0,0 -7,10.1325 -7,14 z"
     id="path4528"
     inkscape:connector-curvature="0" />
</svg>
