<?xml version="1.0" encoding="UTF-8" standalone="no"?>
<!-- Generated by IcoMoon.io -->

<svg
   xmlns:dc="http://purl.org/dc/elements/1.1/"
   xmlns:cc="http://creativecommons.org/ns#"
   xmlns:rdf="http://www.w3.org/1999/02/22-rdf-syntax-ns#"
   xmlns:svg="http://www.w3.org/2000/svg"
   xmlns="http://www.w3.org/2000/svg"
   xmlns:sodipodi="http://sodipodi.sourceforge.net/DTD/sodipodi-0.dtd"
   xmlns:inkscape="http://www.inkscape.org/namespaces/inkscape"
   version="1.1"
   width="112"
   height="112"
   viewBox="0 0 112 112"
   id="svg4418"
   inkscape:version="0.91 r13725"
   sodipodi:docname="windy.svg">
  <metadata
     id="metadata4426">
    <rdf:RDF>
      <cc:Work
         rdf:about="">
        <dc:format>image/svg+xml</dc:format>
        <dc:type
           rdf:resource="http://purl.org/dc/dcmitype/StillImage" />
        <dc:title></dc:title>
      </cc:Work>
    </rdf:RDF>
  </metadata>
  <defs
     id="defs4424" />
  <sodipodi:namedview
     pagecolor="#ffffff"
     bordercolor="#666666"
     borderopacity="1"
     objecttolerance="10"
     gridtolerance="10"
     guidetolerance="10"
     inkscape:pageopacity="0"
     inkscape:pageshadow="2"
     inkscape:window-width="979"
     inkscape:window-height="617"
     id="namedview4422"
     showgrid="false"
     inkscape:zoom="7.375"
     inkscape:cx="-0.94915254"
     inkscape:cy="16"
     inkscape:window-x="0"
     inkscape:window-y="0"
     inkscape:window-maximized="0"
     inkscape:current-layer="svg4418" />
  <path
     d="m 108.26306,52.266791 -19.046834,0 C 87.334689,35.515883 73.249292,22.40112 55.998133,22.40112 c -11.621479,0 -21.872871,5.939535 -27.913202,14.932835 l -24.3517221,0 C 1.6724776,37.333955 0,39.006433 0,41.067164 c 0,2.060732 1.6724776,3.733209 3.7332089,3.733209 l 20.7267761,0 c -0.843706,2.381788 -1.39622,4.875571 -1.679944,7.466418 l -11.580414,0 c -2.060732,0 -3.7332092,1.672478 -3.7332092,3.733209 0,2.060731 1.6724772,3.733209 3.7332092,3.733209 l 11.580414,0 c 0.287457,2.587114 0.836238,5.088364 1.679944,7.466418 l -20.0473321,0 C 1.9711343,67.199627 0,68.872104 0,70.932836 c 0,2.060731 1.9748675,3.733208 4.4126529,3.733208 l 23.6722781,0 c 6.036598,8.997034 16.28799,14.932836 27.913202,14.932836 11.625213,0 21.872871,-5.935802 27.913203,-14.932836 l 8.739442,0 c 2.441519,0 4.412653,-1.672477 4.412653,-3.733208 0,-2.060732 -1.974867,-3.733209 -4.412653,-3.733209 l -5.114496,0 c 0.847439,-2.378054 1.388754,-4.879304 1.683677,-7.466418 l 19.046831,0 C 110.32752,59.733209 112,58.060731 112,56 c 0,-2.060731 -1.67248,-3.733209 -3.73321,-3.733209 z m -75.780409,-7.466418 23.511749,0 c 2.060731,0 3.733209,-1.672477 3.733209,-3.733209 0,-2.060731 -1.672478,-3.733209 -3.733209,-3.733209 l -18.232992,0 c 4.715043,-4.603046 11.136162,-7.466417 18.232992,-7.466417 13.133429,0 23.926136,9.769807 25.751675,22.399253 l -51.507083,0 c 0.380787,-2.639379 1.127429,-5.144362 2.239925,-7.466418 z m 23.515482,37.332089 c -7.09683,0 -13.517949,-2.867104 -18.232992,-7.466418 l 36.462251,0 c -4.711309,4.599314 -11.132428,7.466418 -18.229259,7.466418 z m 23.504284,-14.932835 -47.019766,0 c -1.112497,-2.322056 -1.862872,-4.827039 -2.239926,-7.466418 l 51.507083,0 c -0.380787,2.639379 -1.127429,5.144362 -2.247391,7.466418 z"
     id="path4420"
     inkscape:connector-curvature="0" />
</svg>
