<?xml version="1.0" encoding="UTF-8" standalone="no"?>
<!-- Generated by IcoMoon.io -->

<svg
   xmlns:dc="http://purl.org/dc/elements/1.1/"
   xmlns:cc="http://creativecommons.org/ns#"
   xmlns:rdf="http://www.w3.org/1999/02/22-rdf-syntax-ns#"
   xmlns:svg="http://www.w3.org/2000/svg"
   xmlns="http://www.w3.org/2000/svg"
   xmlns:sodipodi="http://sodipodi.sourceforge.net/DTD/sodipodi-0.dtd"
   xmlns:inkscape="http://www.inkscape.org/namespaces/inkscape"
   version="1.1"
   width="112"
   height="112"
   viewBox="0 0 112 112"
   id="svg4344"
   inkscape:version="0.91 r13725"
   sodipodi:docname="wind.svg">
  <metadata
     id="metadata4352">
    <rdf:RDF>
      <cc:Work
         rdf:about="">
        <dc:format>image/svg+xml</dc:format>
        <dc:type
           rdf:resource="http://purl.org/dc/dcmitype/StillImage" />
        <dc:title></dc:title>
      </cc:Work>
    </rdf:RDF>
  </metadata>
  <defs
     id="defs4350" />
  <sodipodi:namedview
     pagecolor="#ffffff"
     bordercolor="#666666"
     borderopacity="1"
     objecttolerance="10"
     gridtolerance="10"
     guidetolerance="10"
     inkscape:pageopacity="0"
     inkscape:pageshadow="2"
     inkscape:window-width="1047"
     inkscape:window-height="579"
     id="namedview4348"
     showgrid="false"
     inkscape:zoom="7.375"
     inkscape:cx="-0.94915254"
     inkscape:cy="16"
     inkscape:window-x="0"
     inkscape:window-y="0"
     inkscape:window-maximized="0"
     inkscape:current-layer="svg4344" />
  <path
     d="m 99.07692,34.461539 c -7.133535,0 -12.923074,5.789538 -12.923074,12.923077 0,1.520615 0.314462,2.950769 0.792616,4.307692 l -82.6387697,0 C 1.9298462,51.692308 0,53.622154 0,56 c 0,2.377846 1.9298462,4.307692 4.3076923,4.307692 l 94.7692277,0 C 106.21046,60.307692 112,54.518154 112,47.384616 112,40.251077 106.21046,34.461539 99.07692,34.461539 Z M 4.3076923,43.076923 56,43.076923 c 7.133538,0 12.923077,-5.789538 12.923077,-12.923077 0,-7.133538 -5.789539,-12.923077 -12.923077,-12.923077 -7.133538,0 -12.923077,5.789539 -12.923077,12.923077 0,1.520616 0.314462,2.95077 0.792615,4.307693 l -39.5618457,0 C 1.9298462,34.461539 0,36.391385 0,38.769231 c 0,2.377846 1.9298462,4.307692 4.3076923,4.307692 z M 73.230769,68.923077 c -0.254154,0 -0.495384,0.056 -0.749538,0.07754 -0.168,-0.01292 -0.310154,-0.07754 -0.478154,-0.07754 l -66.459077,0 c -3.0627692,0 -5.544,1.929846 -5.544,4.307693 0,2.377846 2.4812308,4.307692 5.544,4.307692 l 55.556308,0 c -0.478154,1.356923 -0.792616,2.791384 -0.792616,4.307692 0,7.133537 5.789539,12.923077 12.923077,12.923077 7.133539,0 12.923077,-5.78954 12.923077,-12.923077 0,-7.133538 -5.789538,-12.923077 -12.923077,-12.923077 z"
     id="path4346"
     inkscape:connector-curvature="0" />
</svg>
